<svg width="556" height="101" viewBox="0 0 556 101" fill="none" xmlns="http://www.w3.org/2000/svg">
<path d="M39.8044 0.626518C36.2087 0.929893 31.0599 2.01338 29.5706 2.77182C29.0387 3.05353 28.06 3.74696 27.4005 4.33204C24.8899 6.52068 23.6984 8.36261 17.8901 18.7641L12.2945 28.7755L9.61373 31.5492C8.14569 33.0878 6.40106 34.713 5.76278 35.1681C4.31601 36.1865 2.5501 38.0718 1.97565 39.1986C1.74161 39.6537 1.31609 40.8239 1.01823 41.7773L0.486328 43.5109L0.784192 50.5536C1.44375 66.6325 1.95437 74.932 2.27351 75.2354C2.35862 75.3004 2.35862 68.1494 2.29479 59.3298L2.14586 43.2942L2.76286 41.6256C3.5288 39.5454 4.57132 38.0935 5.99681 37.1183C6.61382 36.7066 8.59248 34.908 10.3797 33.1094L13.6562 29.859L19.2092 19.8909C25.7622 8.10258 27.2728 5.97894 30.1238 4.2887C31.0174 3.76863 35.3577 2.6418 38.1023 2.23008C39.1874 2.05672 46.7616 1.99171 62.2505 1.99171C84.0584 1.99171 84.8882 2.01338 87.3562 2.44678C90.3987 2.96685 93.0156 3.66028 94.0794 4.20203C95.1858 4.76543 97.0155 6.54236 98.3772 8.36261C99.0155 9.20773 102.058 14.4085 105.1 19.8909L110.675 29.859L113.483 32.7411C115.036 34.3229 117.015 36.1432 117.909 36.7933C119.909 38.2235 120.93 39.6104 121.674 41.929L122.27 43.7276L122.121 50.3369C121.908 59.4165 121.908 75.4521 122.121 74.932C122.419 74.1953 122.93 65.614 123.525 51.0953L123.823 43.5109L123.206 41.4956C122.291 38.5269 120.823 36.5766 118.313 34.9947C117.909 34.7563 116.355 33.2828 114.866 31.7659L112.164 28.9922L106.526 18.9158C100.569 8.25426 99.1644 6.1523 96.7177 4.11535C95.0156 2.72849 94.1858 2.3601 91.2923 1.71001C88.2924 1.03825 86.2073 0.734871 83.9521 0.669861C82.0372 0.626518 69.8248 1.05991 65.1866 1.34162C63.442 1.44997 60.8463 1.44997 59.123 1.34162C57.4422 1.25494 53.0168 1.05991 49.2722 0.929893C45.5276 0.799873 42.0809 0.669861 41.6128 0.626518C41.1448 0.583176 40.3363 0.583176 39.8044 0.626518Z" fill="url(#paint0_linear_112_1021)"/>
<path d="M39.4211 4.18088C36.7403 4.37591 32.0383 4.93932 31.2511 5.17768C30.7404 5.32937 27.9533 9.14325 26.3789 11.8303C24.2725 15.4491 21.3365 21.9717 20.7407 24.4204L20.5918 25.0488L23.4428 24.9188C34.0808 24.3771 49.5059 23.9003 56.3993 23.9003C61.5694 23.9003 62.697 23.597 58.3993 23.3586C52.1654 23.0119 35.8467 23.4886 24.4853 24.3337C22.9109 24.4421 21.5067 24.5504 21.3577 24.5504C20.9322 24.5504 23.1875 19.2197 25.0598 15.7742C27.315 11.6569 31.0809 6.49954 31.9957 6.28284C34.7191 5.61108 39.4211 5.28603 50.0165 5.00433C62.1651 4.67928 62.1438 4.67928 74.1648 5.00433C84.0156 5.26436 87.2282 5.45939 90.7601 6.0228C92.8877 6.36952 92.5472 6.08781 94.994 9.27326C96.845 11.6353 98.6535 14.604 100.27 17.9628C101.717 20.9316 103.121 24.2904 102.951 24.4421C102.909 24.5071 101.568 24.4421 99.9938 24.3337C92.0366 23.7486 85.0581 23.4236 77.3562 23.3152C69.016 23.1852 62.6332 23.3586 63.2289 23.6836C63.3991 23.7703 67.7394 23.9003 72.8882 23.987C82.2497 24.1387 88.5473 24.3337 98.2705 24.7888C101.121 24.9188 103.504 24.9621 103.568 24.8971C103.696 24.7888 102.824 22.2968 101.781 19.6747C100.973 17.7245 98.8875 13.5422 97.7599 11.6136C96.3982 9.3166 93.4408 5.3077 93.0153 5.17768C92.8238 5.11268 91.6324 4.91765 90.3345 4.74429C85.7602 4.0942 80.8667 3.94251 71.8244 4.11587C61.697 4.3109 63.314 4.3109 51.5058 4.13754C46.4209 4.07253 40.9742 4.0942 39.4211 4.18088Z" fill="url(#paint1_linear_112_1021)"/>
<path d="M17.4854 26.8684C17.4428 28.9054 18.7407 31.289 21.5917 34.5178C23.8895 37.1182 27.5702 40.542 27.8042 40.3036C27.8681 40.2386 27.1234 39.2852 26.1447 38.2017C19.2938 30.4872 18.5492 29.4904 17.8684 27.0851L17.4854 25.7416V26.8684Z" fill="url(#paint2_linear_112_1021)"/>
<path d="M106.229 27.584C105.803 29.4692 104.357 31.5062 100.144 36.2518C97.9737 38.6789 96.1865 40.7591 96.1865 40.8675C96.1865 41.2792 97.7184 39.914 100.548 37.032C105.037 32.4596 106.697 29.8159 106.569 27.5406L106.505 26.3921L106.229 27.584Z" fill="url(#paint3_linear_112_1021)"/>
<path d="M6.42363 38.7868C4.72155 40.4771 4.01944 43.4025 4.48752 46.7396C4.72155 48.4732 4.80666 48.6899 5.6577 49.6434C6.65767 50.7702 7.48743 51.2469 10.7214 52.5471C12.7001 53.3489 13.4873 53.5222 19.8062 54.4757C23.6146 55.0391 27.1465 55.5159 27.6784 55.5159C28.7422 55.5375 29.5932 55.0825 29.5932 54.4757C29.5932 54.259 28.7209 52.7855 27.6571 51.2036C26.2741 49.1666 25.5508 47.8231 25.1891 46.6963C24.8912 45.8295 24.6146 45.1577 24.5508 45.2227C24.5082 45.2661 24.6572 46.0462 24.9125 46.9563C25.2529 48.1698 25.8061 49.34 27.1465 51.4636C28.1252 53.0455 28.8698 54.4107 28.8273 54.4974C28.6358 54.8008 27.7635 54.6924 20.6573 53.5873C14.0617 52.5254 13.6149 52.4388 10.9767 51.3986C7.93423 50.2068 6.42363 49.2966 5.84918 48.2998C5.23218 47.238 5.16835 43.8142 5.7428 41.9073C6.31725 40.0003 7.3385 38.8518 8.46613 38.8518C10.5725 38.8518 14.5298 40.0003 22.7849 43.0341C25.9337 44.1826 27.8486 44.7893 27.572 44.5076C27.1677 44.1393 17.9552 40.3037 15.2319 39.3719C12.7852 38.5485 9.29589 37.7684 7.93423 37.7684C7.65764 37.7684 7.04064 38.1801 6.42363 38.7868Z" fill="url(#paint4_linear_112_1021)"/>
<path d="M113.866 38.115C112.866 38.2884 110.951 38.8084 109.59 39.2635C107.058 40.1303 97.3134 44.1825 96.9304 44.5076C96.5474 44.876 99.5473 43.8792 105.76 41.5822C109.632 40.1303 113.292 39.1335 115.292 38.9385C116.632 38.8084 116.781 38.8301 117.398 39.3719C118.164 40.0436 118.909 41.8205 119.164 43.6191C119.355 45.071 119.057 47.823 118.611 48.4948C118.079 49.3399 116.823 50.055 113.824 51.2902C110.994 52.4387 110.824 52.4604 103.93 53.5655C96.824 54.6924 95.8666 54.8007 95.6964 54.4973C95.6326 54.4106 96.4198 53.0238 97.4197 51.4202C98.7814 49.2316 99.3346 48.1264 99.6112 46.9779C100.164 44.8543 100.101 44.7459 99.4197 46.6529C99.0367 47.7147 98.1644 49.2749 96.8666 51.2035C95.8028 52.8071 94.9092 54.259 94.9092 54.4106C94.9092 54.5407 95.1007 54.8657 95.3347 55.1041C95.9304 55.7108 96.7389 55.6675 104.696 54.4757C111.419 53.4572 111.675 53.3922 114.313 52.352C117.909 50.9002 119.334 49.795 119.845 48.0614C119.972 47.5847 120.1 46.2195 120.1 45.0277C120.121 42.0589 119.547 40.2603 118.079 38.7868C116.909 37.6383 116.802 37.6166 113.866 38.115Z" fill="url(#paint5_linear_112_1021)"/>
<path d="M39.826 42.9903C34.89 43.272 31.9964 43.727 31.0816 44.3555C29.6348 45.3306 29.1667 47.1292 29.6773 49.6645C30.1241 51.7882 30.6135 52.7633 32.1454 54.4969C34.9112 57.6173 37.2729 58.6141 43.4216 59.2426C50.464 59.9793 59.634 60.7594 60.3148 60.6944C61.1233 60.6078 55.8894 59.9143 47.1024 58.8959C43.5068 58.4841 40.0813 58.0291 39.4856 57.899C36.4644 57.1839 33.8262 55.472 32.0815 53.045C30.8901 51.4198 30.422 50.0113 30.3795 48.061C30.3369 46.3491 30.6986 45.569 31.7837 44.9839C33.2943 44.2038 39.9749 43.6837 52.5491 43.402C57.5064 43.2936 61.5914 43.1636 61.6339 43.1203C61.9743 42.7736 45.3152 42.6652 39.826 42.9903Z" fill="url(#paint6_linear_112_1021)"/>
<path d="M64.9095 42.9476L62.25 43.0776L64.8882 43.2293C66.335 43.3376 69.1221 43.4026 71.0583 43.4026C78.3772 43.4026 89.5471 44.1177 91.7598 44.7028C92.2066 44.8328 92.8023 45.2445 93.1853 45.6779C93.781 46.3714 93.8449 46.6097 93.8449 47.8016C93.8449 49.1668 93.4832 50.9437 93.0151 51.8105C92.4832 52.8073 90.6322 54.8659 89.3769 55.8194C87.8663 56.9895 85.0579 58.008 82.675 58.2464C80.6537 58.4414 67.8456 60.0016 65.335 60.3267C64.2287 60.4784 63.484 60.6517 63.6968 60.6951C64.5691 60.8901 83.2494 59.1132 85.0579 58.6798C87.377 58.1164 88.7173 57.4879 90.2918 56.2094C93.0576 53.9774 94.398 51.6805 94.6321 48.7984C94.8023 46.8698 94.5895 45.9163 93.8236 45.0279C92.93 44.0094 91.8875 43.6843 88.1003 43.2726C84.5472 42.9042 69.9306 42.6875 64.9095 42.9476Z" fill="url(#paint7_linear_112_1021)"/>
<path d="M61.0166 45.1575C59.506 45.3959 58.2295 46.111 57.0593 47.4111C55.8253 48.798 55.3359 50.0982 55.3359 52.0051C55.3359 54.7355 56.6976 56.9675 59.1018 58.181C60.3358 58.7877 60.74 58.8961 62.1443 58.8744C64.1655 58.8744 65.5271 58.2893 66.8888 56.8808C68.3143 55.3856 68.8462 54.0854 68.8462 51.9618C68.8462 50.6399 68.7398 49.9898 68.3781 49.2097C67.1016 46.3493 64.0591 44.6808 61.0166 45.1575ZM64.2931 46.1326C65.591 46.5444 66.8037 47.6278 67.5696 49.058C68.1228 50.0765 68.2079 50.4449 68.2079 51.9618C68.2079 53.4137 68.1015 53.8687 67.6335 54.7788C66.4633 57.0542 64.5272 58.246 62.0379 58.2243C59.5486 58.2243 57.5486 56.8808 56.4423 54.4755C55.9955 53.4787 55.9317 53.1103 56.0168 51.6584C56.1231 49.8381 56.4423 49.0364 57.6125 47.7145C58.5273 46.6744 59.7188 46.0243 61.0592 45.7859C62.1655 45.6126 62.8889 45.6992 64.2931 46.1326Z" fill="url(#paint8_linear_112_1021)"/>
<path d="M30.5708 48.2134C30.7623 48.5167 33.7622 48.8201 38.5281 49.0368C47.2938 49.4052 53.6978 49.5135 54.3787 49.2752C54.9106 49.1018 54.9318 49.0802 54.5489 49.0585C54.2723 49.0368 52.6553 48.9285 50.932 48.7984C46.8257 48.4951 30.4644 48.0183 30.5708 48.2134Z" fill="url(#paint9_linear_112_1021)"/>
<path d="M84.9099 48.3C80.1654 48.4517 74.8889 48.6684 73.1443 48.7984C71.4209 48.9285 69.804 49.0368 69.5274 49.0585C69.1444 49.0802 69.1657 49.1018 69.6976 49.2752C70.3784 49.5135 76.7825 49.4052 85.5482 49.0368C90.5906 48.8201 93.3139 48.5167 93.548 48.1484C93.6118 48.04 93.6331 47.975 93.5905 47.975C93.548 47.9967 89.6545 48.1484 84.9099 48.3Z" fill="url(#paint10_linear_112_1021)"/>
<path d="M32.8895 53.5662C33.0171 53.6962 33.6341 53.8913 34.2724 54.0213C37.0383 54.498 54.9527 55.1264 55.1867 54.7364C55.4207 54.3463 48.5273 53.8913 39.485 53.6962C36.3362 53.6096 33.5065 53.5012 33.2086 53.4579C32.8256 53.3712 32.7405 53.4145 32.8895 53.5662Z" fill="url(#paint11_linear_112_1021)"/>
<path d="M85.5484 53.6089C75.8891 53.9123 68.6765 54.389 68.868 54.6924C69.0169 54.9525 72.804 54.9308 79.3996 54.6708C86.676 54.3674 90.0802 54.0857 90.9099 53.7173C91.2929 53.5439 91.4631 53.4139 91.2929 53.4139C91.1227 53.4356 88.527 53.5223 85.5484 53.6089Z" fill="url(#paint12_linear_112_1021)"/>
<path d="M7.55033 61.887C6.20995 63.0355 4.91211 66.3943 4.91211 68.778C4.91211 69.6881 5.01849 69.8832 6.18867 71.1833C6.89078 71.9635 7.95458 72.9169 8.55031 73.3286L9.63538 74.0221L15.1033 74.1304C21.6138 74.2388 23.9541 74.0221 25.1456 73.177C26.0605 72.5485 27.103 71.205 28.7412 68.6913C30.0816 66.5677 29.7838 66.7194 28.1881 68.9297C26.8902 70.7283 25.5498 72.2452 24.6775 72.8953C23.7626 73.5453 18.7841 73.8487 13.848 73.5237C11.1673 73.3503 9.69921 73.1553 9.27369 72.9386C8.93327 72.7436 7.9333 71.8768 7.08226 70.9883C5.59294 69.4714 5.52911 69.3631 5.65677 68.583C6.12484 65.6792 7.06099 63.2739 8.03968 62.4938C9.08221 61.627 12.0183 61.952 23.5712 64.184C36.7197 66.741 38.5069 66.8061 27.103 64.3574C15.7203 61.9087 14.0395 61.6053 10.9758 61.4536C8.23117 61.3236 8.18861 61.3453 7.55033 61.887Z" fill="url(#paint13_linear_112_1021)"/>
<path d="M109.59 61.9304C105.229 62.7105 89.9952 65.9826 90.1229 66.1126C90.2505 66.2427 94.3142 65.5709 100.229 64.4007C108.676 62.7755 111.867 62.2338 114.207 62.1037L116.377 61.9737L116.994 62.6455C118.037 63.794 118.888 66.0043 119.228 68.6047C119.335 69.3631 119.271 69.4931 117.824 71.01C116.973 71.8768 116.016 72.7436 115.654 72.9386C114.824 73.3503 108.08 73.8271 105.335 73.6537C100.527 73.3287 100.697 73.372 99.4205 72.1368C98.7822 71.5301 97.612 70.1215 96.8035 69.0164C95.995 67.9329 95.2929 67.0228 95.2291 67.0228C94.9525 67.0228 97.7184 71.1183 98.7609 72.2235C100.463 74.0438 100.548 74.0654 108.548 74.0654H115.292L116.505 73.2203C117.165 72.7436 118.228 71.7684 118.867 71.0533C120.207 69.5148 120.292 69.0164 119.59 66.286C119.101 64.3141 118.271 62.6455 117.399 61.9087C116.846 61.432 116.611 61.3886 114.633 61.4103C113.378 61.4103 111.25 61.6487 109.59 61.9304Z" fill="url(#paint14_linear_112_1021)"/>
<path d="M40.741 67.2392C38.6347 67.5642 37.5071 68.3226 31.1881 73.7184C28.6563 75.8854 27.3797 76.7305 25.55 77.4456C24.2096 77.9657 24.2734 77.9657 13.6992 77.6406C7.78452 77.4673 4.6995 77.5106 4.97609 77.7706C5.16757 77.9657 11.0185 78.4857 19.4863 79.0492L24.1458 79.3525L25.7627 78.8108C26.6351 78.5074 27.8052 78.009 28.3584 77.7056C29.3584 77.1422 29.7201 76.8605 35.4646 72.0932C37.2092 70.663 38.9539 69.2978 39.3368 69.1028C40.2517 68.626 42.507 68.3877 49.3791 68.1059C52.4854 67.9759 56.1236 67.7809 57.464 67.6726C58.8044 67.5425 60.1022 67.4559 60.3362 67.4559C60.6979 67.4559 60.6979 67.4125 60.4426 67.2392C60.0597 67.0008 42.4006 67.0008 40.741 67.2392Z" fill="url(#paint15_linear_112_1021)"/>
<path d="M63.208 67.2389C62.9527 67.4123 62.974 67.4556 63.3357 67.4556C63.591 67.4556 65.0165 67.564 66.5271 67.6723C68.0377 67.8024 72.3354 68.0407 76.1013 68.2141C81.0161 68.4308 83.1649 68.6258 83.8458 68.8642C84.9096 69.2542 85.5904 69.7526 90.5477 73.9349C94.2923 77.0987 95.9518 78.1605 98.3347 78.8973C99.6964 79.3307 99.8666 79.3307 104.398 79.0273C109.951 78.6806 116.611 78.1172 118.036 77.9221L119.058 77.7704L118.207 77.6187C117.526 77.4887 110.568 77.5971 101.079 77.9005C99.4836 77.9438 97.4411 77.337 95.9093 76.3402C95.3774 75.9935 93.4838 74.4983 91.7392 73.0031C87.3563 69.2759 85.6329 67.9974 84.3777 67.5423C83.4202 67.1739 82.3777 67.1306 73.4205 67.0873C67.0377 67.0439 63.4208 67.0873 63.208 67.2389Z" fill="url(#paint16_linear_112_1021)"/>
<path d="M0.358756 78.3344C0.209824 78.9411 0.571516 85.4204 0.890656 87.5007C1.27362 90.1877 1.25235 90.1227 2.42253 90.9462L3.52888 91.7046L9.86913 91.943L16.2307 92.1597L17.5498 91.0979L18.8902 90.0144L19.0391 85.6371C19.1242 83.2317 19.1242 81.1948 19.0178 81.1081C18.8476 80.9347 12.3584 80.1763 8.7415 79.8729C7.48622 79.7863 6.14583 79.4612 4.18844 78.7894C1.01831 77.706 0.55024 77.6626 0.358756 78.3344ZM2.76294 79.3529L4.72034 80.393L4.82672 82.43C4.97565 85.312 5.48627 88.6275 5.89052 89.2343L6.23093 89.776H5.03948C3.44378 89.776 2.61401 89.3426 2.48636 88.4108C1.86935 84.2069 1.2098 80.3497 0.97576 79.4179C0.826828 78.8111 0.720448 78.291 0.763 78.291C0.784276 78.291 1.69914 78.7678 2.76294 79.3529ZM7.63515 81.3898L8.95426 81.5848V82.82C8.97554 84.7486 9.54999 88.6925 9.91168 89.2559L10.2308 89.776H8.63512C7.10325 89.776 7.03942 89.7543 6.72028 89.1259C6.55007 88.7792 6.40114 88.1291 6.40114 87.674C6.40114 86.8072 5.89052 82.8417 5.6352 81.5632C5.48627 80.8914 5.52882 80.8264 5.89052 80.9998C6.10328 81.0864 6.89049 81.2598 7.63515 81.3898ZM11.8265 81.7582H12.7201L12.869 84.2936C12.9967 86.8939 13.252 88.7142 13.5286 89.3859C13.6563 89.7327 13.5286 89.776 12.2946 89.776C10.9968 89.776 10.9117 89.7543 10.6989 89.1692C10.5925 88.8442 10.3372 87.2623 10.1457 85.6587C9.95423 84.0552 9.74147 82.4516 9.65637 82.1049C9.52871 81.4982 9.54999 81.4765 10.2308 81.6065C10.6138 81.6932 11.3372 81.7582 11.8265 81.7582ZM15.72 81.9749C16.7413 81.9749 17.6774 82.0616 17.8051 82.1483C18.1029 82.3433 17.4434 88.5192 17.0817 88.9742C16.6774 89.4726 15.6775 89.8193 14.8903 89.7327C14.0392 89.646 13.9967 89.4943 13.635 85.7671C13.5073 84.3369 13.3371 82.8417 13.2733 82.43C13.1669 81.8015 13.2095 81.7149 13.5073 81.8232C13.7201 81.9099 14.7201 81.9749 15.72 81.9749Z" fill="url(#paint17_linear_112_1021)"/>
<path d="M119.802 78.8106C117.526 79.6124 116.717 79.7858 114.164 80.0025C112.526 80.1542 109.803 80.4359 108.101 80.6526L105.016 80.9993L105.079 85.4416L105.165 89.8839L105.824 90.4689C106.207 90.794 106.845 91.3141 107.25 91.6174L108.016 92.1592L114.356 91.9425L120.717 91.7258L121.739 90.9457C122.313 90.5123 122.824 89.9705 122.887 89.7105C123.398 87.2835 124.058 78.9406 123.781 78.2039C123.568 77.6621 122.717 77.7921 119.802 78.8106ZM123.334 78.6373C123.122 79.2224 122.143 84.7265 121.866 86.9368C121.632 88.8437 121.59 88.9954 120.973 89.3638C120.547 89.6455 119.93 89.7755 119.143 89.7755H117.93L118.313 89.0387C118.696 88.2586 119.1 85.6583 119.334 82.3211L119.483 80.4142L121.292 79.374C123.313 78.2039 123.526 78.1389 123.334 78.6373ZM118.398 82.2128C118.249 82.9495 118.015 84.6398 117.888 85.9616C117.76 87.2835 117.547 88.692 117.398 89.0604L117.164 89.7755H115.462C113.845 89.7755 113.803 89.7538 114.122 89.3855C114.547 88.9087 115.122 85.3549 115.122 83.1229V81.5844L116.356 81.4327C117.037 81.3677 117.739 81.1943 117.909 81.0859C118.59 80.6526 118.675 80.8693 118.398 82.2128ZM114.356 82.9495C114.207 83.708 113.973 85.3766 113.845 86.6334C113.569 89.7105 113.526 89.7755 111.824 89.7755C110.484 89.7755 110.228 89.6455 110.632 89.2338C110.888 88.9737 111.292 85.2899 111.292 83.2963V81.7794L112.526 81.6927C113.186 81.6494 113.952 81.606 114.186 81.5844C114.632 81.541 114.632 81.5627 114.356 82.9495ZM110.845 82.5595C110.76 83.0146 110.569 84.5964 110.441 86.0917C110.143 89.5155 110.037 89.7755 109.037 89.7755C107.93 89.7755 106.888 89.0604 106.76 88.1936C106.484 86.5251 106.143 82.6245 106.25 82.3211C106.356 82.0611 106.845 81.9744 108.462 81.9094C109.611 81.8877 110.654 81.8227 110.781 81.801C110.973 81.7794 110.973 81.9961 110.845 82.5595Z" fill="url(#paint18_linear_112_1021)"/>
<path d="M47.3574 78.5293L33.9535 78.6377L30.1876 79.5478C28.1026 80.0462 25.8261 80.4796 25.0814 80.4796C23.9325 80.5013 22.2517 80.7613 22.5708 80.8697C22.6347 80.8913 23.6346 80.9997 24.8048 81.0864C26.6558 81.2597 27.3792 81.1947 30.443 80.6746L33.9535 80.0896L47.8893 80.2629C55.5486 80.3496 68.3355 80.3496 76.2927 80.2412L90.7604 80.0679L94.4837 80.9997C97.8028 81.8015 98.3985 81.9098 99.7389 81.7798C100.59 81.6931 101.335 81.5848 101.398 81.4981C101.484 81.4331 100.781 81.3031 99.8666 81.2164C98.7389 81.108 97.0368 80.6746 94.5901 79.8729L90.9732 78.681L82.0373 78.5943C63.3995 78.3993 60.3996 78.3993 47.3574 78.5293Z" fill="url(#paint19_linear_112_1021)"/>
<path d="M160.408 22.4514C160.408 20.0788 161.034 18.1808 162.286 16.7573C163.538 15.3338 165.416 14.6221 167.921 14.6221H186.002L188.186 26.6329H174.297C173.54 26.6329 173.162 27.0481 173.162 27.8785V66.1352C173.162 66.9655 173.54 67.3807 174.297 67.3807H180.063V41.9356H192.379V79.1246H170.279C166.61 79.1246 164.048 78.3536 162.592 76.8115C161.136 75.2694 160.408 72.7189 160.408 69.1601V22.4514ZM211.247 25.9211C210.49 25.9211 210.112 26.3364 210.112 27.1667V66.491C210.112 66.9655 210.185 67.3065 210.33 67.5141C210.476 67.7217 210.811 67.8255 211.335 67.8255H216.139C216.663 67.8255 216.998 67.7217 217.144 67.5141C217.289 67.3065 217.362 66.9655 217.362 66.491V27.1667C217.362 26.3364 216.984 25.9211 216.226 25.9211H211.247ZM230.203 69.9608C230.203 71.2064 230.057 72.3779 229.766 73.4751C229.475 74.5724 228.98 75.5362 228.281 76.3665C227.582 77.1969 226.651 77.8641 225.486 78.3683C224.321 78.8725 222.865 79.1246 221.118 79.1246H206.443C204.696 79.1246 203.24 78.8725 202.075 78.3683C200.911 77.8641 199.979 77.1969 199.28 76.3665C198.581 75.5362 198.086 74.5724 197.795 73.4751C197.504 72.3779 197.358 71.2064 197.358 69.9608V22.9852C197.358 20.4347 198.043 18.4033 199.411 16.8908C200.78 15.3783 202.949 14.6221 205.919 14.6221H221.642C224.612 14.6221 226.782 15.3783 228.15 16.8908C229.518 18.4033 230.203 20.4347 230.203 22.9852V69.9608ZM235.444 14.6221H248.46V67.1138H261.213L259.029 79.1246H235.444V14.6221ZM277.723 25.9211V67.8256H283.663C284.187 67.8256 284.522 67.7217 284.667 67.5142C284.813 67.3066 284.886 66.9656 284.886 66.4911V27.1668C284.886 26.3364 284.507 25.9212 283.75 25.9212L277.723 25.9211ZM297.464 69.1601C297.464 72.7189 296.736 75.2692 295.281 76.8115C293.825 78.3537 291.262 79.1246 287.593 79.1246H265.144V14.6221H289.952C292.456 14.6221 294.334 15.3338 295.586 16.7573C296.838 18.1808 297.464 20.0788 297.464 22.4514V69.1601ZM302.706 14.6221H327.339L329.523 26.6329H315.721V41.9356H326.203V53.0567H315.721V67.1138H328.999L326.815 79.1246H302.706V14.6221ZM333.89 14.6221H345.945L352.409 40.5121V14.6221H365.425V79.1246H352.409L345.596 52.167V79.1246H333.89V14.6221ZM384.73 79.1246L382.459 67.1138H396.086C397.076 67.1138 397.571 66.669 397.571 65.7793V54.0354C397.571 53.1457 397.396 52.6119 397.046 52.4339C396.697 52.256 396.086 52.167 395.212 52.167H388.661C387.729 52.167 386.841 52.0929 385.996 51.9446C385.152 51.7963 384.395 51.4553 383.725 50.9215C383.055 50.3876 382.531 49.6463 382.153 48.6972C381.774 47.7482 381.585 46.473 381.585 44.8716V22.9852C381.585 20.4347 382.269 18.4033 383.638 16.8908C385.006 15.3783 387.175 14.6221 390.145 14.6221H407.616L409.8 26.6329H395.474C394.426 26.6329 393.902 27.1074 393.902 28.0564V39.8003C393.902 40.4527 394.062 40.8976 394.382 41.1349C394.702 41.3721 395.183 41.4907 395.823 41.4907H403.772C405.811 41.4907 407.368 41.9801 408.446 42.9587C409.523 43.9374 410.062 45.6427 410.062 48.0744V69.3381C410.062 72.8968 409.348 75.4178 407.922 76.9004C406.495 78.3831 403.976 79.1246 400.366 79.1246H384.73ZM426.833 71.1174L425.698 79.1246H412.944L424.388 14.6221H437.927L449.37 79.1246H436.617L435.481 71.1174H426.833ZM428.231 60.886H434.084L431.201 38.0209L428.231 60.886ZM452.865 14.6221H464.919L471.383 40.5121V14.6221H484.399V79.1246H471.383L464.57 52.167V79.1246H452.865V14.6221ZM502.219 25.9211V67.8256H508.159C508.683 67.8256 509.018 67.7217 509.163 67.5142C509.309 67.3066 509.382 66.9656 509.382 66.4911V27.1668C509.382 26.3364 509.003 25.9212 508.246 25.9212L502.219 25.9211ZM521.96 69.1601C521.96 72.7189 521.232 75.2692 519.777 76.8115C518.321 78.3537 515.758 79.1246 512.09 79.1246H489.64V14.6221H514.448C516.952 14.6221 518.83 15.3338 520.082 16.7573C521.335 18.1808 521.96 20.0788 521.96 22.4514V69.1601ZM530.346 79.1246L528.075 67.1138H541.702C542.692 67.1138 543.187 66.669 543.187 65.7793V54.0354C543.187 53.1457 543.013 52.6119 542.663 52.4339C542.314 52.256 541.702 52.167 540.829 52.167H534.277C533.345 52.167 532.457 52.0929 531.613 51.9446C530.768 51.7963 530.011 51.4553 529.342 50.9215C528.672 50.3876 528.148 49.6463 527.769 48.6972C527.391 47.7482 527.202 46.473 527.202 44.8716V22.9852C527.202 20.4347 527.886 18.4033 529.254 16.8908C530.623 15.3783 532.792 14.6221 535.762 14.6221H553.233L555.416 26.6329H541.091C540.042 26.6329 539.518 27.1074 539.518 28.0564V39.8003C539.518 40.4527 539.678 40.8976 539.999 41.1349C540.319 41.3721 540.799 41.4907 541.44 41.4907H549.389C551.427 41.4907 552.985 41.9801 554.062 42.9587C555.14 43.9374 555.678 45.6427 555.678 48.0744V69.3381C555.678 72.8968 554.965 75.4178 553.538 76.9004C552.112 78.3831 549.593 79.1246 545.982 79.1246H530.346Z" fill="url(#paint20_linear_112_1021)"/>
<path d="M200.428 100.401V94.7791H206.016V95.978H201.959V96.9069H205.807V98.1058H201.959V99.2024H206.073V100.401L200.428 100.401ZM217.3 97.5166L219.92 100.401H218.132L216.404 98.5068L214.685 100.401H212.901L215.516 97.5166L213.03 94.7791H214.817L216.404 96.5386L217.999 94.7791H219.787L217.3 97.5166ZM233.236 96.6982C233.236 96.9792 233.196 97.2376 233.116 97.4736C233.035 97.7096 232.906 97.9128 232.728 98.0833C232.55 98.2539 232.319 98.3868 232.035 98.4823C231.751 98.5778 231.406 98.6255 230.998 98.6255H228.524V100.401H227.033V94.7791H230.998C231.406 94.7791 231.751 94.8261 232.035 94.9203C232.319 95.0144 232.55 95.1467 232.728 95.3172C232.906 95.4877 233.035 95.6902 233.116 95.9248C233.196 96.1594 233.236 96.4172 233.236 96.6982ZM231.73 96.7227C231.73 96.5918 231.712 96.4793 231.675 96.3852C231.639 96.291 231.58 96.214 231.497 96.154C231.414 96.094 231.305 96.0496 231.171 96.021C231.037 95.9923 230.873 95.978 230.677 95.978H228.524V97.4265H230.677C230.873 97.4265 231.037 97.4149 231.171 97.3918C231.305 97.3686 231.414 97.329 231.497 97.2731C231.58 97.2172 231.639 97.1442 231.675 97.0542C231.712 96.9642 231.73 96.8537 231.73 96.7227ZM240.607 100.401V94.7791H246.195V95.978H242.137V96.9069H245.986V98.1058H242.137V99.2024H246.251V100.401L240.607 100.401ZM255.317 100.401H253.827V94.7791H257.563C257.965 94.7791 258.306 94.8214 258.586 94.9059C258.866 94.9905 259.093 95.1105 259.269 95.266C259.444 95.4215 259.571 95.609 259.65 95.8287C259.729 96.0483 259.769 96.2931 259.769 96.5631C259.769 96.8005 259.736 97.0078 259.671 97.1851C259.605 97.3624 259.517 97.5145 259.405 97.6414C259.294 97.7682 259.165 97.8753 259.018 97.9626C258.87 98.0499 258.715 98.1222 258.552 98.1795L260.36 100.401H258.616L256.945 98.3309H255.317L255.317 100.401ZM258.262 96.555C258.262 96.4458 258.248 96.3531 258.22 96.2767C258.192 96.2003 258.143 96.1383 258.074 96.0905C258.004 96.0428 257.911 96.008 257.794 95.9862C257.678 95.9644 257.533 95.9535 257.358 95.9535H255.317V97.1565H257.358C257.532 97.1565 257.678 97.1456 257.794 97.1238C257.911 97.1019 258.004 97.0672 258.074 97.0194C258.143 96.9717 258.192 96.9096 258.22 96.8332C258.248 96.7568 258.262 96.6641 258.262 96.555ZM267.565 100.401V94.7791H269.056V100.401H267.565ZM276.921 100.401V94.7791H282.509V95.978H278.451V96.9069H282.3V98.1058H278.451V99.2024H282.565V100.401L276.921 100.401ZM295.356 100.401L291.631 96.5386V100.401H290.141V94.7791H291.76L295.488 98.6582V94.7791H296.971V100.401H295.356ZM310.918 100.017C310.725 100.099 310.531 100.172 310.336 100.238C310.14 100.303 309.938 100.36 309.729 100.407C309.52 100.455 309.3 100.491 309.068 100.516C308.836 100.54 308.588 100.553 308.323 100.553C307.76 100.553 307.243 100.491 306.77 100.369C306.297 100.246 305.89 100.061 305.549 99.8142C305.207 99.5673 304.941 99.259 304.751 98.8894C304.561 98.5198 304.466 98.0881 304.466 97.5943C304.466 97.1006 304.561 96.6689 304.751 96.2992C304.941 95.9296 305.207 95.6213 305.549 95.3745C305.89 95.1276 306.297 94.9428 306.77 94.82C307.243 94.6973 307.76 94.6359 308.323 94.6359C308.588 94.6359 308.836 94.6482 309.068 94.6727C309.3 94.6973 309.52 94.7334 309.729 94.7812C309.938 94.8289 310.14 94.8855 310.336 94.951C310.531 95.0165 310.725 95.0901 310.918 95.172V96.5386C310.766 96.4541 310.605 96.3702 310.436 96.287C310.267 96.2038 310.081 96.1288 309.878 96.0619C309.674 95.9951 309.45 95.9405 309.207 95.8983C308.963 95.856 308.688 95.8348 308.383 95.8348C307.914 95.8348 307.525 95.8839 307.216 95.9821C306.907 96.0803 306.66 96.2113 306.475 96.375C306.29 96.5386 306.16 96.7262 306.085 96.9376C306.01 97.149 305.973 97.368 305.973 97.5944C305.973 97.7444 305.989 97.8924 306.021 98.0384C306.053 98.1843 306.106 98.3221 306.181 98.4516C306.256 98.5812 306.354 98.7006 306.475 98.8097C306.595 98.9188 306.745 99.0129 306.925 99.092C307.104 99.1711 307.314 99.2332 307.553 99.2782C307.793 99.3232 308.07 99.3457 308.383 99.3457C308.688 99.3457 308.963 99.326 309.207 99.2864C309.45 99.2468 309.674 99.1943 309.878 99.1289C310.081 99.0634 310.267 98.9891 310.436 98.9058C310.605 98.8226 310.766 98.7374 310.918 98.6501V100.017ZM318.445 100.401V94.7791H324.034V95.978H319.976V96.9069H323.825V98.1058H319.976V99.2024H324.09V100.401L318.445 100.401ZM347.658 97.5861C347.658 97.9462 347.619 98.2661 347.541 98.5457C347.464 98.8252 347.355 99.0687 347.214 99.2761C347.073 99.4834 346.905 99.6593 346.708 99.8039C346.511 99.9485 346.292 100.064 346.051 100.152C345.81 100.239 345.55 100.302 345.271 100.342C344.993 100.382 344.702 100.401 344.4 100.401H340.896V94.7791H344.392C344.694 94.7791 344.985 94.7988 345.263 94.8384C345.542 94.8779 345.802 94.9414 346.045 95.0287C346.287 95.116 346.508 95.2312 346.706 95.3744C346.904 95.5176 347.073 95.6936 347.214 95.9023C347.355 96.111 347.464 96.3545 347.541 96.6327C347.619 96.911 347.658 97.2288 347.658 97.5861ZM346.155 97.5861C346.155 97.316 346.121 97.0815 346.053 96.8823C345.985 96.6831 345.875 96.5188 345.724 96.3892C345.572 96.2596 345.375 96.1628 345.131 96.0987C344.887 96.0346 344.59 96.0025 344.239 96.0025H342.387V99.1778H344.239C344.59 99.1778 344.887 99.1458 345.131 99.0817C345.375 99.0176 345.572 98.9194 345.724 98.7871C345.875 98.6547 345.985 98.489 346.053 98.2899C346.121 98.0908 346.155 97.8562 346.155 97.5861ZM361.669 98.5068C361.669 98.7878 361.601 99.0524 361.465 99.3006C361.328 99.5488 361.123 99.7658 360.85 99.9512C360.577 100.137 360.236 100.283 359.827 100.391C359.419 100.499 358.941 100.553 358.395 100.553C357.849 100.553 357.37 100.499 356.959 100.391C356.548 100.283 356.206 100.137 355.932 99.9512C355.659 99.7657 355.454 99.5489 355.318 99.3006C355.181 99.0524 355.113 98.7878 355.113 98.5068V94.7791H356.599V97.9626C356.599 98.1508 356.623 98.3288 356.67 98.4966C356.716 98.6643 356.805 98.811 356.935 98.9365C357.065 99.0619 357.247 99.1615 357.481 99.2352C357.715 99.3088 358.02 99.3457 358.395 99.3457C358.767 99.3457 359.07 99.3088 359.303 99.2352C359.536 99.1615 359.718 99.0619 359.847 98.9365C359.977 98.811 360.065 98.6644 360.111 98.4966C360.156 98.3288 360.179 98.1508 360.179 97.9626V94.7791H361.669L361.669 98.5068ZM375.79 98.8505C375.79 99.0688 375.761 99.2584 375.705 99.4193C375.649 99.5802 375.571 99.7187 375.47 99.8346C375.37 99.9506 375.249 100.045 375.109 100.117C374.968 100.189 374.813 100.247 374.643 100.289C374.473 100.331 374.291 100.36 374.098 100.377C373.905 100.393 373.706 100.401 373.5 100.401H369.494V94.779H373.427C373.585 94.779 373.744 94.7859 373.903 94.7995C374.063 94.8131 374.215 94.8384 374.359 94.8752C374.504 94.912 374.639 94.9632 374.763 95.0287C374.888 95.0941 374.996 95.1801 375.089 95.2864C375.181 95.3928 375.253 95.521 375.305 95.6711C375.358 95.8211 375.384 95.9984 375.384 96.203C375.384 96.5686 375.295 96.8584 375.119 97.0726C374.942 97.2867 374.663 97.4292 374.283 97.5002C374.551 97.5193 374.78 97.5609 374.972 97.625C375.163 97.6891 375.32 97.7764 375.44 97.8868C375.561 97.9973 375.649 98.1324 375.705 98.2919C375.761 98.4515 375.79 98.6377 375.79 98.8505ZM373.93 96.4445C373.93 96.3735 373.919 96.306 373.898 96.2419C373.876 96.1778 373.837 96.1212 373.781 96.0721C373.725 96.023 373.648 95.9835 373.552 95.9534C373.456 95.9234 373.332 95.9084 373.182 95.9084H370.985V96.9641H373.182C373.332 96.9641 373.456 96.9505 373.552 96.9232C373.648 96.8959 373.725 96.8591 373.781 96.8127C373.837 96.7664 373.876 96.7111 373.898 96.647C373.919 96.5829 373.93 96.5154 373.93 96.4445ZM374.275 98.6746C374.275 98.5464 374.254 98.4434 374.211 98.3656C374.168 98.2879 374.101 98.2279 374.01 98.1856C373.919 98.1433 373.801 98.1154 373.657 98.1017C373.512 98.0881 373.339 98.0813 373.138 98.0813H370.985V99.272H373.138C373.339 99.272 373.512 99.2652 373.657 99.2515C373.801 99.2379 373.919 99.2093 374.01 99.1656C374.101 99.122 374.168 99.0613 374.211 98.9835C374.254 98.9058 374.275 98.8028 374.275 98.6746ZM387.72 99.3375H384.643L384.125 100.401H382.461L385.35 94.7791H387.013L389.902 100.401H388.239L387.72 99.3375ZM385.177 98.2408H387.194L386.19 96.1703L385.177 98.2408ZM396.943 100.401V94.7791H398.434V100.401H396.943ZM415.529 100.401V94.7791H421.118V95.978H417.06V96.9069H420.909V98.1058H417.06V99.2024H421.174V100.401L415.529 100.401ZM428.749 100.401V94.7791H430.24V99.1699H434.269V100.402L428.749 100.401ZM441.6 100.401V94.7791H447.188V95.978H443.131V96.9069H446.979V98.1058H443.131V99.2024H447.245V100.401L441.6 100.401ZM458.376 94.6358C458.917 94.6358 459.419 94.6828 459.884 94.7769C460.349 94.871 460.775 94.9918 461.164 95.1391V96.514C461.011 96.4267 460.839 96.3421 460.647 96.2603C460.456 96.1784 460.248 96.1061 460.023 96.0434C459.798 95.9807 459.557 95.9302 459.3 95.892C459.042 95.8538 458.772 95.8347 458.488 95.8347C458.134 95.8347 457.826 95.8606 457.564 95.9125C457.301 95.9643 457.077 96.0339 456.889 96.1211C456.702 96.2084 456.548 96.3101 456.427 96.426C456.307 96.5419 456.211 96.6654 456.142 96.7963C456.072 96.9273 456.024 97.0609 455.997 97.1973C455.97 97.3337 455.957 97.466 455.957 97.5942C455.957 97.7061 455.968 97.8275 455.991 97.9584C456.014 98.0894 456.057 98.2203 456.12 98.3512C456.183 98.4822 456.27 98.6077 456.383 98.7277C456.495 98.8477 456.642 98.9541 456.823 99.0469C457.004 99.1396 457.221 99.2139 457.476 99.2699C457.73 99.3258 458.033 99.3538 458.384 99.3538C458.56 99.3538 458.714 99.3483 458.846 99.3374C458.977 99.3265 459.097 99.3115 459.205 99.2924C459.314 99.2733 459.415 99.2501 459.51 99.2228C459.606 99.1955 459.704 99.1669 459.806 99.1369V98.4576H458.134V97.2259H461.296V100.098C461.098 100.167 460.876 100.229 460.631 100.285C460.386 100.341 460.133 100.388 459.872 100.428C459.611 100.467 459.349 100.498 459.087 100.52C458.824 100.542 458.576 100.553 458.343 100.553C457.982 100.553 457.635 100.528 457.303 100.479C456.971 100.43 456.661 100.354 456.373 100.252C456.085 100.15 455.822 100.019 455.585 99.8612C455.348 99.7029 455.146 99.5147 454.979 99.2964C454.811 99.0782 454.681 98.8279 454.589 98.5456C454.497 98.2632 454.45 97.9461 454.45 97.5942C454.45 97.245 454.499 96.9286 454.595 96.6449C454.691 96.3612 454.826 96.1102 454.999 95.892C455.171 95.6738 455.379 95.4855 455.621 95.3273C455.864 95.169 456.13 95.0388 456.421 94.9365C456.712 94.8342 457.022 94.7585 457.353 94.7094C457.684 94.6603 458.025 94.6358 458.376 94.6358ZM473.472 99.3375H470.395L469.876 100.401H468.213L471.102 94.7791H472.765L475.654 100.401H473.99L473.472 99.3375ZM470.929 98.2408H472.946L471.941 96.1703L470.929 98.2408ZM487.909 100.401L484.185 96.5386V100.401H482.695V94.7791H484.314L488.042 98.6582V94.7791H489.524V100.401H487.909ZM503.472 100.017C503.279 100.099 503.085 100.172 502.889 100.238C502.694 100.303 502.492 100.36 502.283 100.407C502.074 100.455 501.854 100.491 501.622 100.516C501.39 100.54 501.142 100.553 500.877 100.553C500.314 100.553 499.797 100.491 499.324 100.369C498.851 100.246 498.444 100.061 498.103 99.8142C497.761 99.5673 497.495 99.259 497.305 98.8894C497.115 98.5198 497.02 98.0881 497.02 97.5943C497.02 97.1006 497.115 96.6689 497.305 96.2992C497.495 95.9296 497.761 95.6213 498.103 95.3745C498.444 95.1276 498.851 94.9428 499.324 94.82C499.797 94.6973 500.314 94.6359 500.877 94.6359C501.142 94.6359 501.39 94.6482 501.622 94.6727C501.854 94.6973 502.074 94.7334 502.283 94.7812C502.492 94.8289 502.694 94.8855 502.889 94.951C503.085 95.0165 503.279 95.0901 503.472 95.172V96.5386C503.319 96.4541 503.159 96.3702 502.99 96.287C502.821 96.2038 502.635 96.1288 502.432 96.0619C502.228 95.9951 502.004 95.9405 501.761 95.8983C501.517 95.856 501.242 95.8348 500.937 95.8348C500.468 95.8348 500.079 95.8839 499.77 95.9821C499.461 96.0803 499.213 96.2113 499.029 96.375C498.844 96.5386 498.714 96.7262 498.639 96.9376C498.564 97.149 498.526 97.368 498.526 97.5944C498.526 97.7444 498.542 97.8924 498.575 98.0384C498.607 98.1843 498.66 98.3221 498.735 98.4516C498.81 98.5812 498.908 98.7006 499.029 98.8097C499.149 98.9188 499.299 99.0129 499.479 99.092C499.658 99.1711 499.868 99.2332 500.107 99.2782C500.347 99.3232 500.624 99.3457 500.937 99.3457C501.242 99.3457 501.517 99.326 501.761 99.2864C502.004 99.2468 502.228 99.1943 502.432 99.1289C502.635 99.0634 502.821 98.9891 502.99 98.9058C503.159 98.8226 503.319 98.7374 503.472 98.6501V100.017ZM510.999 100.401V94.7791H516.588V95.978H512.53V96.9069H516.379V98.1058H512.53V99.2024H516.644V100.401L510.999 100.401Z" fill="url(#paint21_linear_112_1021)"/>
<defs>
<linearGradient id="paint0_linear_112_1021" x1="0.486328" y1="75.2358" x2="123.823" y2="75.2358" gradientUnits="userSpaceOnUse">
<stop stop-color="#8F5E25"/>
<stop offset="0.5" stop-color="#FBF4A1"/>
<stop offset="1" stop-color="#8F5E25"/>
</linearGradient>
<linearGradient id="paint1_linear_112_1021" x1="20.5918" y1="25.0488" x2="103.581" y2="25.0488" gradientUnits="userSpaceOnUse">
<stop stop-color="#8F5E25"/>
<stop offset="0.5" stop-color="#FBF4A1"/>
<stop offset="1" stop-color="#8F5E25"/>
</linearGradient>
<linearGradient id="paint2_linear_112_1021" x1="17.4844" y1="40.3154" x2="27.8081" y2="40.3154" gradientUnits="userSpaceOnUse">
<stop stop-color="#8F5E25"/>
<stop offset="0.5" stop-color="#FBF4A1"/>
<stop offset="1" stop-color="#8F5E25"/>
</linearGradient>
<linearGradient id="paint3_linear_112_1021" x1="96.1865" y1="40.9395" x2="106.576" y2="40.9395" gradientUnits="userSpaceOnUse">
<stop stop-color="#8F5E25"/>
<stop offset="0.5" stop-color="#FBF4A1"/>
<stop offset="1" stop-color="#8F5E25"/>
</linearGradient>
<linearGradient id="paint4_linear_112_1021" x1="4.3457" y1="55.5166" x2="29.5932" y2="55.5166" gradientUnits="userSpaceOnUse">
<stop stop-color="#8F5E25"/>
<stop offset="0.5" stop-color="#FBF4A1"/>
<stop offset="1" stop-color="#8F5E25"/>
</linearGradient>
<linearGradient id="paint5_linear_112_1021" x1="94.9092" y1="55.4883" x2="120.101" y2="55.4883" gradientUnits="userSpaceOnUse">
<stop stop-color="#8F5E25"/>
<stop offset="0.5" stop-color="#FBF4A1"/>
<stop offset="1" stop-color="#8F5E25"/>
</linearGradient>
<linearGradient id="paint6_linear_112_1021" x1="29.4775" y1="60.6982" x2="61.639" y2="60.6982" gradientUnits="userSpaceOnUse">
<stop stop-color="#8F5E25"/>
<stop offset="0.5" stop-color="#FBF4A1"/>
<stop offset="1" stop-color="#8F5E25"/>
</linearGradient>
<linearGradient id="paint7_linear_112_1021" x1="62.25" y1="60.71" x2="94.6871" y2="60.71" gradientUnits="userSpaceOnUse">
<stop stop-color="#8F5E25"/>
<stop offset="0.5" stop-color="#FBF4A1"/>
<stop offset="1" stop-color="#8F5E25"/>
</linearGradient>
<linearGradient id="paint8_linear_112_1021" x1="55.3359" y1="58.877" x2="68.8462" y2="58.877" gradientUnits="userSpaceOnUse">
<stop stop-color="#8F5E25"/>
<stop offset="0.5" stop-color="#FBF4A1"/>
<stop offset="1" stop-color="#8F5E25"/>
</linearGradient>
<linearGradient id="paint9_linear_112_1021" x1="30.5703" y1="49.4019" x2="54.8106" y2="49.4019" gradientUnits="userSpaceOnUse">
<stop stop-color="#8F5E25"/>
<stop offset="0.5" stop-color="#FBF4A1"/>
<stop offset="1" stop-color="#8F5E25"/>
</linearGradient>
<linearGradient id="paint10_linear_112_1021" x1="69.2656" y1="49.4019" x2="93.6127" y2="49.4019" gradientUnits="userSpaceOnUse">
<stop stop-color="#8F5E25"/>
<stop offset="0.5" stop-color="#FBF4A1"/>
<stop offset="1" stop-color="#8F5E25"/>
</linearGradient>
<linearGradient id="paint11_linear_112_1021" x1="32.8203" y1="54.8584" x2="55.1925" y2="54.8584" gradientUnits="userSpaceOnUse">
<stop stop-color="#8F5E25"/>
<stop offset="0.5" stop-color="#FBF4A1"/>
<stop offset="1" stop-color="#8F5E25"/>
</linearGradient>
<linearGradient id="paint12_linear_112_1021" x1="68.8643" y1="54.877" x2="91.3589" y2="54.877" gradientUnits="userSpaceOnUse">
<stop stop-color="#8F5E25"/>
<stop offset="0.5" stop-color="#FBF4A1"/>
<stop offset="1" stop-color="#8F5E25"/>
</linearGradient>
<linearGradient id="paint13_linear_112_1021" x1="4.91211" y1="74.1562" x2="34.652" y2="74.1562" gradientUnits="userSpaceOnUse">
<stop stop-color="#8F5E25"/>
<stop offset="0.5" stop-color="#FBF4A1"/>
<stop offset="1" stop-color="#8F5E25"/>
</linearGradient>
<linearGradient id="paint14_linear_112_1021" x1="90.1221" y1="74.0654" x2="120.025" y2="74.0654" gradientUnits="userSpaceOnUse">
<stop stop-color="#8F5E25"/>
<stop offset="0.5" stop-color="#FBF4A1"/>
<stop offset="1" stop-color="#8F5E25"/>
</linearGradient>
<linearGradient id="paint15_linear_112_1021" x1="4.95898" y1="79.3525" x2="60.6225" y2="79.3525" gradientUnits="userSpaceOnUse">
<stop stop-color="#8F5E25"/>
<stop offset="0.5" stop-color="#FBF4A1"/>
<stop offset="1" stop-color="#8F5E25"/>
</linearGradient>
<linearGradient id="paint16_linear_112_1021" x1="63.0371" y1="79.2407" x2="119.058" y2="79.2407" gradientUnits="userSpaceOnUse">
<stop stop-color="#8F5E25"/>
<stop offset="0.5" stop-color="#FBF4A1"/>
<stop offset="1" stop-color="#8F5E25"/>
</linearGradient>
<linearGradient id="paint17_linear_112_1021" x1="0.324219" y1="92.1597" x2="19.1005" y2="92.1597" gradientUnits="userSpaceOnUse">
<stop stop-color="#8F5E25"/>
<stop offset="0.5" stop-color="#FBF4A1"/>
<stop offset="1" stop-color="#8F5E25"/>
</linearGradient>
<linearGradient id="paint18_linear_112_1021" x1="105.016" y1="92.1592" x2="123.846" y2="92.1592" gradientUnits="userSpaceOnUse">
<stop stop-color="#8F5E25"/>
<stop offset="0.5" stop-color="#FBF4A1"/>
<stop offset="1" stop-color="#8F5E25"/>
</linearGradient>
<linearGradient id="paint19_linear_112_1021" x1="22.5312" y1="81.8262" x2="101.405" y2="81.8262" gradientUnits="userSpaceOnUse">
<stop stop-color="#8F5E25"/>
<stop offset="0.5" stop-color="#FBF4A1"/>
<stop offset="1" stop-color="#8F5E25"/>
</linearGradient>
<linearGradient id="paint20_linear_112_1021" x1="160.408" y1="14.6221" x2="555.678" y2="14.6221" gradientUnits="userSpaceOnUse">
<stop stop-color="#8F5E25"/>
<stop offset="0.5" stop-color="#FBF4A1"/>
<stop offset="1" stop-color="#8F5E25"/>
</linearGradient>
<linearGradient id="paint21_linear_112_1021" x1="200.428" y1="94.6357" x2="516.644" y2="94.6357" gradientUnits="userSpaceOnUse">
<stop stop-color="#8F5E25"/>
<stop offset="0.5" stop-color="#FBF4A1"/>
<stop offset="1" stop-color="#8F5E25"/>
</linearGradient>
</defs>
</svg>
