<svg width="180" height="40" viewBox="0 0 180 40" fill="none" xmlns="http://www.w3.org/2000/svg">
<g id="Color logo - no background">
<g id="Group">
<g id="SvgjsG1108">
<g id="Group_2">
<path id="Vector" d="M16.7087 4.64899C15.6023 4.74223 14.0181 5.07522 13.5599 5.30832C13.3962 5.39489 13.0951 5.60801 12.8921 5.78782C12.1196 6.46046 11.753 7.02655 9.96585 10.2233L8.24413 13.3001L7.41927 14.1525C6.96757 14.6254 6.43076 15.1249 6.23436 15.2647C5.7892 15.5777 5.24585 16.1571 5.06909 16.5035C4.99708 16.6433 4.86615 17.0029 4.7745 17.296L4.61084 17.8288L4.70249 19.9932C4.90543 24.9348 5.06255 27.4855 5.16074 27.5787C5.18693 27.5987 5.18693 25.401 5.16729 22.6904L5.12146 17.7622L5.31131 17.2494C5.54698 16.61 5.86776 16.1638 6.30637 15.8641C6.49622 15.7376 7.10504 15.1848 7.65494 14.6321L8.6631 13.6331L10.3717 10.5696C12.388 6.94663 12.8528 6.29397 13.7301 5.7745C14.005 5.61467 15.3405 5.26836 16.185 5.14182C16.5189 5.08854 18.8494 5.06856 23.6152 5.06856C30.3253 5.06856 30.5807 5.07522 31.34 5.20842C32.2762 5.36825 33.0814 5.58137 33.4087 5.74786C33.7491 5.92102 34.3121 6.46712 34.7311 7.02655C34.9275 7.28628 35.8636 8.88463 36.7998 10.5696L38.515 13.6331L39.3791 14.5188C39.857 15.005 40.4658 15.5644 40.7408 15.7642C41.3561 16.2038 41.6704 16.63 41.8995 17.3426L42.0828 17.8954L42.037 19.9266C41.9715 22.7171 41.9715 27.6453 42.037 27.4855C42.1286 27.2591 42.2857 24.6218 42.469 20.1597L42.5607 17.8288L42.3708 17.2094C42.0893 16.297 41.6376 15.6976 40.8651 15.2115C40.7408 15.1382 40.2629 14.6853 39.8046 14.2191L38.9732 13.3667L37.2384 10.2699C35.4054 6.99325 34.9733 6.34725 34.2205 5.72122C33.6968 5.29499 33.4415 5.18178 32.5511 4.98198C31.6281 4.77553 30.9865 4.68229 30.2926 4.66231C29.7034 4.64899 25.9458 4.78219 24.5186 4.86877C23.9818 4.90207 23.1832 4.90207 22.6529 4.86877C22.1357 4.84213 20.7741 4.78219 19.6219 4.74223C18.4697 4.70227 17.4092 4.66231 17.2652 4.64899C17.1211 4.63567 16.8724 4.63567 16.7087 4.64899Z" fill="url(#paint0_linear_65_47)"/>
<path id="Vector_2" d="M16.591 5.7412C15.7661 5.80114 14.3194 5.9743 14.0771 6.04756C13.92 6.09417 13.0624 7.2663 12.578 8.09212C11.9299 9.20431 11.0265 11.2089 10.8432 11.9615L10.7974 12.1546L11.6746 12.1146C14.9478 11.9481 19.694 11.8016 21.8151 11.8016C23.4058 11.8016 23.7528 11.7084 22.4304 11.6351C20.5123 11.5286 15.4912 11.6751 11.9954 11.9348C11.5109 11.9681 11.0789 12.0014 11.033 12.0014C10.9021 12.0014 11.596 10.3631 12.1721 9.3042C12.866 8.03884 14.0248 6.4538 14.3063 6.38721C15.1442 6.18075 16.591 6.08085 19.8511 5.99428C23.5891 5.89438 23.5826 5.89438 27.2814 5.99428C30.3124 6.07419 31.3009 6.13413 32.3876 6.30729C33.0422 6.41385 32.9375 6.32727 33.6903 7.30626C34.2599 8.03218 34.8163 8.94457 35.3139 9.97684C35.759 10.8892 36.1911 11.9215 36.1387 11.9681C36.1256 11.9881 35.7132 11.9681 35.2288 11.9348C32.7804 11.755 30.6331 11.6551 28.2633 11.6218C25.6971 11.5819 23.7332 11.6351 23.9165 11.735C23.9688 11.7617 25.3043 11.8016 26.8886 11.8283C29.769 11.8749 31.7068 11.9348 34.6985 12.0747C35.5757 12.1146 36.3089 12.128 36.3286 12.108C36.3678 12.0747 36.0994 11.3088 35.7787 10.503C35.5299 9.90359 34.8883 8.61824 34.5414 8.02552C34.1224 7.31958 33.2124 6.08751 33.0815 6.04756C33.0226 6.02758 32.656 5.96764 32.2567 5.91436C30.8492 5.71456 29.3435 5.66795 26.5612 5.72122C23.4451 5.78116 23.9427 5.78116 20.3094 5.72788C18.7448 5.70791 17.0689 5.71456 16.591 5.7412Z" fill="url(#paint1_linear_65_47)"/>
<path id="Vector_3" d="M9.84162 12.714C9.82853 13.3401 10.2279 14.0726 11.1051 15.0649C11.8121 15.8641 12.9446 16.9164 13.0167 16.8431C13.0363 16.8231 12.8072 16.5301 12.506 16.1971C10.3981 13.8262 10.1689 13.5199 9.95946 12.7806L9.84162 12.3677V12.714Z" fill="url(#paint2_linear_65_47)"/>
<path id="Vector_4" d="M37.1471 12.9338C37.0161 13.5132 36.571 14.1392 35.2748 15.5977C34.607 16.3436 34.0571 16.983 34.0571 17.0163C34.0571 17.1428 34.5285 16.7232 35.3992 15.8375C36.7805 14.4323 37.2911 13.6198 37.2518 12.9205L37.2322 12.5675L37.1471 12.9338Z" fill="url(#paint3_linear_65_47)"/>
<path id="Vector_5" d="M6.43721 16.3769C5.9135 16.8964 5.69746 17.7955 5.84149 18.8211C5.9135 19.3539 5.93968 19.4205 6.20154 19.7135C6.50923 20.0598 6.76454 20.2063 7.7596 20.6059C8.36842 20.8523 8.61064 20.9056 10.5549 21.1986C11.7268 21.3718 12.8135 21.5183 12.9771 21.5183C13.3045 21.525 13.5663 21.3851 13.5663 21.1986C13.5663 21.132 13.2979 20.6792 12.9706 20.193C12.5451 19.567 12.3225 19.1541 12.2112 18.8078C12.1195 18.5414 12.0344 18.3349 12.0148 18.3549C12.0017 18.3682 12.0475 18.608 12.1261 18.8877C12.2308 19.2606 12.401 19.6202 12.8135 20.2729C13.1146 20.7591 13.3437 21.1786 13.3306 21.2053C13.2717 21.2985 13.0033 21.2652 10.8168 20.9256C8.78739 20.5992 8.64992 20.5726 7.83816 20.2529C6.90201 19.8866 6.43721 19.6069 6.26046 19.3006C6.07061 18.9742 6.05097 17.922 6.22773 17.3359C6.40448 16.7499 6.71871 16.3969 7.06567 16.3969C7.71377 16.3969 8.93142 16.7499 11.4714 17.6822C12.4403 18.0352 13.0295 18.2217 12.9444 18.1351C12.82 18.0219 9.9854 16.8431 9.14745 16.5567C8.39461 16.3037 7.32099 16.0639 6.90201 16.0639C6.81691 16.0639 6.62706 16.1904 6.43721 16.3769Z" fill="url(#paint4_linear_65_47)"/>
<path id="Vector_6" d="M39.497 16.1705C39.1893 16.2238 38.6001 16.3836 38.1811 16.5234C37.4021 16.7898 34.4038 18.0352 34.286 18.1351C34.1681 18.2483 35.0912 17.942 37.0028 17.236C38.1942 16.7898 39.3202 16.4835 39.9356 16.4235C40.348 16.3836 40.3938 16.3902 40.5837 16.5567C40.8193 16.7632 41.0485 17.3093 41.127 17.8621C41.1859 18.3083 41.0943 19.1541 40.9568 19.3605C40.7932 19.6203 40.4069 19.84 39.4839 20.2196C38.6132 20.5726 38.5608 20.5793 36.4398 20.9189C34.2532 21.2652 33.9587 21.2985 33.9063 21.2053C33.8866 21.1786 34.1289 20.7524 34.4365 20.2596C34.8555 19.587 35.0257 19.2473 35.1108 18.8943C35.281 18.2417 35.2614 18.2084 35.0519 18.7944C34.9341 19.1208 34.6657 19.6003 34.2663 20.193C33.939 20.6858 33.6641 21.132 33.6641 21.1786C33.6641 21.2186 33.723 21.3185 33.795 21.3918C33.9783 21.5782 34.2271 21.5649 36.6754 21.1986C38.7441 20.8856 38.8227 20.8656 39.6344 20.546C40.7408 20.0998 41.1794 19.7601 41.3365 19.2273C41.3758 19.0808 41.4151 18.6612 41.4151 18.295C41.4216 17.3826 41.2449 16.8298 40.7932 16.3769C40.4331 16.024 40.4004 16.0173 39.497 16.1705Z" fill="url(#paint5_linear_65_47)"/>
<path id="Vector_7" d="M16.7154 17.6689C15.1966 17.7555 14.3063 17.8954 14.0248 18.0885C13.5796 18.3882 13.4356 18.9409 13.5927 19.7201C13.7302 20.3728 13.8808 20.6725 14.3521 21.2053C15.2032 22.1643 15.9298 22.4706 17.8217 22.6638C19.9886 22.8902 22.8101 23.13 23.0196 23.11C23.2684 23.0834 21.658 22.8702 18.9543 22.5572C17.8479 22.4307 16.7939 22.2908 16.6106 22.2509C15.6811 22.0311 14.8693 21.505 14.3325 20.7591C13.9659 20.2596 13.8219 19.8267 13.8088 19.2273C13.7957 18.7012 13.907 18.4614 14.2408 18.2816C14.7056 18.0419 16.7612 17.882 20.6302 17.7955C22.1555 17.7622 23.4124 17.7222 23.4255 17.7089C23.5303 17.6023 18.4044 17.569 16.7154 17.6689Z" fill="url(#paint6_linear_65_47)"/>
<path id="Vector_8" d="M24.4335 17.6556L23.6152 17.6956L24.427 17.7422C24.8722 17.7755 25.7297 17.7955 26.3255 17.7955C28.5775 17.7955 32.0143 18.0152 32.6952 18.1951C32.8327 18.235 33.016 18.3616 33.1338 18.4948C33.3171 18.7079 33.3367 18.7811 33.3367 19.1474C33.3367 19.567 33.2254 20.1131 33.0814 20.3795C32.9178 20.6858 32.3482 21.3185 31.962 21.6115C31.4972 21.9712 30.633 22.2842 29.8998 22.3574C29.2779 22.4174 25.337 22.8969 24.5645 22.9968C24.2241 23.0434 23.9949 23.0967 24.0604 23.11C24.3288 23.1699 30.0766 22.6238 30.633 22.4906C31.3466 22.3175 31.759 22.1243 32.2435 21.7314C33.0945 21.0455 33.5069 20.3395 33.5789 19.4538C33.6313 18.861 33.5659 18.568 33.3302 18.295C33.0552 17.9819 32.7345 17.882 31.5692 17.7555C30.4759 17.6423 25.9785 17.5757 24.4335 17.6556Z" fill="url(#paint7_linear_65_47)"/>
<path id="Vector_9" d="M23.2357 18.3349C22.7709 18.4082 22.3781 18.6279 22.0181 19.0275C21.6384 19.4538 21.4878 19.8533 21.4878 20.4394C21.4878 21.2785 21.9068 21.9645 22.6465 22.3375C23.0262 22.5239 23.1506 22.5572 23.5827 22.5506C24.2046 22.5506 24.6235 22.3708 25.0425 21.9379C25.4811 21.4783 25.6448 21.0788 25.6448 20.4261C25.6448 20.0198 25.6121 19.82 25.5008 19.5803C25.108 18.7012 24.1718 18.1884 23.2357 18.3349ZM24.2439 18.6346C24.6432 18.7611 25.0163 19.0941 25.252 19.5337C25.4222 19.8467 25.4484 19.9599 25.4484 20.4261C25.4484 20.8723 25.4157 21.0122 25.2716 21.2919C24.9116 21.9911 24.3159 22.3574 23.5499 22.3508C22.784 22.3508 22.1686 21.9379 21.8282 21.1986C21.6907 20.8923 21.6711 20.7791 21.6973 20.3329C21.73 19.7734 21.8282 19.527 22.1883 19.1208C22.4698 18.8011 22.8364 18.6013 23.2488 18.528C23.5892 18.4748 23.8118 18.5014 24.2439 18.6346Z" fill="url(#paint8_linear_65_47)"/>
<path id="Vector_10" d="M13.8678 19.2739C13.9268 19.3672 14.8498 19.4604 16.3162 19.527C19.0134 19.6402 20.9838 19.6735 21.1933 19.6003C21.357 19.547 21.3635 19.5403 21.2457 19.5337C21.1606 19.527 20.6631 19.4937 20.1328 19.4538C18.8693 19.3605 13.8351 19.214 13.8678 19.2739Z" fill="url(#paint9_linear_65_47)"/>
<path id="Vector_11" d="M30.5871 19.3006C29.1272 19.3472 27.5037 19.4138 26.9669 19.4538C26.4366 19.4937 25.9391 19.527 25.854 19.5337C25.7361 19.5403 25.7427 19.547 25.9063 19.6003C26.1158 19.6735 28.0863 19.6402 30.7835 19.527C32.335 19.4604 33.1729 19.3672 33.2449 19.254C33.2646 19.2207 33.2711 19.2007 33.258 19.2007C33.2449 19.2073 32.0469 19.254 30.5871 19.3006Z" fill="url(#paint10_linear_65_47)"/>
<path id="Vector_12" d="M14.5813 20.9189C14.6206 20.9589 14.8105 21.0188 15.0069 21.0588C15.8579 21.2053 21.37 21.3984 21.442 21.2785C21.514 21.1587 19.393 21.0188 16.6107 20.9589C15.6419 20.9322 14.7712 20.8989 14.6795 20.8856C14.5617 20.859 14.5355 20.8723 14.5813 20.9189Z" fill="url(#paint11_linear_65_47)"/>
<path id="Vector_13" d="M30.7835 20.9322C27.8114 21.0255 25.5921 21.172 25.651 21.2652C25.6969 21.3452 26.8621 21.3385 28.8915 21.2586C31.1304 21.1653 32.1779 21.0788 32.4332 20.9655C32.551 20.9123 32.6034 20.8723 32.551 20.8723C32.4986 20.879 31.7 20.9056 30.7835 20.9322Z" fill="url(#paint12_linear_65_47)"/>
<path id="Vector_14" d="M6.78442 23.4763C6.37199 23.8292 5.97266 24.8615 5.97266 25.5941C5.97266 25.8738 6.00539 25.9337 6.36544 26.3333C6.58148 26.5731 6.9088 26.8661 7.0921 26.9927L7.42597 27.2058L9.10841 27.2391C11.1116 27.2724 11.8317 27.2058 12.1983 26.946C12.4798 26.7529 12.8006 26.34 13.3047 25.5675C13.7171 24.9148 13.6255 24.9614 13.1345 25.6407C12.7352 26.1935 12.3227 26.6597 12.0543 26.8595C11.7728 27.0593 10.2409 27.1525 8.72217 27.0526C7.89732 26.9993 7.44561 26.9394 7.31468 26.8728C7.20994 26.8128 6.90225 26.5465 6.6404 26.2734C6.18214 25.8072 6.1625 25.7739 6.20178 25.5342C6.3458 24.6417 6.63385 23.9025 6.93499 23.6628C7.25576 23.3964 8.15917 23.4963 11.7139 24.1822C15.7596 24.9681 16.3095 24.9881 12.8006 24.2355C9.29826 23.4829 8.78109 23.3897 7.8384 23.3431C6.9939 23.3031 6.98081 23.3098 6.78442 23.4763Z" fill="url(#paint13_linear_65_47)"/>
<path id="Vector_15" d="M38.1812 23.4896C36.8392 23.7294 32.1519 24.735 32.1912 24.775C32.2304 24.8149 33.4808 24.6085 35.3007 24.2488C37.8997 23.7493 38.8816 23.5828 39.6018 23.5429L40.2695 23.5029L40.4593 23.7094C40.7801 24.0624 41.042 24.7417 41.1467 25.5408C41.1795 25.7739 41.1598 25.8139 40.7147 26.2801C40.4528 26.5465 40.1582 26.8129 40.0469 26.8728C39.7916 26.9993 37.7164 27.1458 36.8719 27.0926C35.3924 26.9927 35.4448 27.006 35.052 26.6264C34.8556 26.4399 34.4955 26.007 34.2468 25.6674C33.998 25.3344 33.782 25.0547 33.7623 25.0547C33.6772 25.0547 34.5282 26.3134 34.849 26.653C35.3727 27.2124 35.3989 27.2191 37.8604 27.2191H39.9356L40.3088 26.9594C40.5117 26.8129 40.839 26.5132 41.0354 26.2934C41.4479 25.8205 41.474 25.6674 41.258 24.8282C41.1074 24.2222 40.8521 23.7094 40.5837 23.4829C40.4135 23.3364 40.3415 23.3231 39.7327 23.3298C39.3464 23.3298 38.6918 23.403 38.1812 23.4896Z" fill="url(#paint14_linear_65_47)"/>
<path id="Vector_16" d="M16.9967 25.1213C16.3486 25.2212 16.0016 25.4543 14.0573 27.1126C13.2783 27.7785 12.8855 28.0383 12.3225 28.258C11.9101 28.4179 11.9297 28.4179 8.67613 28.318C6.85621 28.2647 5.90698 28.278 5.99208 28.3579C6.051 28.4179 7.85127 28.5777 10.4568 28.7509L11.8904 28.8441L12.388 28.6776C12.6564 28.5844 13.0164 28.4312 13.1866 28.338C13.4943 28.1648 13.6056 28.0782 15.3732 26.6131C15.91 26.1735 16.4468 25.7539 16.5646 25.694C16.8461 25.5475 17.54 25.4742 19.6545 25.3877C20.6103 25.3477 21.7298 25.2878 22.1422 25.2545C22.5546 25.2145 22.954 25.1879 23.026 25.1879C23.1373 25.1879 23.1373 25.1745 23.0587 25.1213C22.9409 25.048 17.5073 25.048 16.9967 25.1213Z" fill="url(#paint15_linear_65_47)"/>
<path id="Vector_17" d="M23.91 25.1213C23.8315 25.1745 23.838 25.1879 23.9493 25.1879C24.0279 25.1879 24.4665 25.2212 24.9313 25.2545C25.3961 25.2944 26.7184 25.3677 27.8772 25.421C29.3894 25.4876 30.0506 25.5475 30.2601 25.6207C30.5874 25.7406 30.7969 25.8938 32.3222 27.1791C33.4744 28.1515 33.985 28.4778 34.7182 28.7042C35.1372 28.8374 35.1896 28.8374 36.584 28.7442C38.2926 28.6376 40.3416 28.4645 40.7802 28.4046L41.0945 28.3579L40.8326 28.3113C40.6231 28.2714 38.4824 28.3047 35.5627 28.3979C35.0717 28.4112 34.4433 28.2247 33.9719 27.9184C33.8083 27.8118 33.2256 27.3523 32.6888 26.8928C31.3403 25.7473 30.81 25.3544 30.4237 25.2145C30.1292 25.1013 29.8084 25.088 27.0523 25.0746C25.0884 25.0613 23.9755 25.0746 23.91 25.1213Z" fill="url(#paint16_linear_65_47)"/>
<path id="Vector_18" d="M4.57166 28.5311C4.52584 28.7176 4.63713 30.7088 4.73532 31.3482C4.85316 32.174 4.84661 32.154 5.20667 32.4071L5.54708 32.6402L7.49793 32.7134L9.45532 32.78L9.8612 32.4537L10.2736 32.1207L10.3195 30.7754C10.3456 30.0362 10.3456 29.4102 10.3129 29.3835C10.2605 29.3303 8.26387 29.0972 7.15097 29.0039C6.76473 28.9773 6.3523 28.8774 5.75003 28.6709C4.7746 28.338 4.63058 28.3246 4.57166 28.5311ZM5.31141 28.8441L5.91369 29.1638L5.94642 29.7898C5.99224 30.6755 6.14936 31.6945 6.27374 31.881L6.37849 32.0475H6.01188C5.5209 32.0475 5.26559 31.9143 5.22631 31.6279C5.03646 30.3359 4.83352 29.1504 4.76151 28.8641C4.71568 28.6776 4.68295 28.5178 4.69604 28.5178C4.70259 28.5178 4.98409 28.6643 5.31141 28.8441ZM6.81055 29.4701L7.21643 29.5301V29.9097C7.22298 30.5024 7.39973 31.7145 7.51102 31.8876L7.60922 32.0475H7.11824C6.64689 32.0475 6.62725 32.0408 6.52905 31.8477C6.47668 31.7411 6.43086 31.5413 6.43086 31.4015C6.43086 31.1351 6.27374 29.9163 6.19518 29.5234C6.14936 29.3169 6.16245 29.297 6.27374 29.3502C6.33921 29.3769 6.58143 29.4302 6.81055 29.4701ZM8.1002 29.5833H8.37516L8.42098 30.3625C8.46026 31.1617 8.53882 31.7211 8.62392 31.9276C8.6632 32.0341 8.62392 32.0475 8.24423 32.0475C7.84489 32.0475 7.81871 32.0408 7.75324 31.861C7.72051 31.7611 7.64195 31.2749 7.58303 30.7821C7.52412 30.2893 7.45865 29.7964 7.43247 29.6899C7.39319 29.5034 7.39973 29.4968 7.60922 29.5367C7.72706 29.5634 7.94964 29.5833 8.1002 29.5833ZM9.29821 29.6499C9.61244 29.6499 9.90048 29.6766 9.93976 29.7032C10.0314 29.7632 9.82847 31.6612 9.71718 31.8011C9.5928 31.9542 9.28511 32.0608 9.0429 32.0341C8.78104 32.0075 8.76794 31.9609 8.65665 30.8154C8.61738 30.3759 8.565 29.9163 8.54536 29.7898C8.51263 29.5967 8.52572 29.57 8.61738 29.6033C8.68284 29.63 8.99052 29.6499 9.29821 29.6499Z" fill="url(#paint17_linear_65_47)"/>
<path id="Vector_19" d="M41.3237 28.6776C40.6232 28.924 40.3745 28.9773 39.5889 29.0439C39.0848 29.0905 38.2469 29.1771 37.7232 29.2437L36.7739 29.3502L36.7936 30.7155L36.8198 32.0808L37.0227 32.2606C37.1405 32.3605 37.3369 32.5203 37.4613 32.6135L37.697 32.78L39.6478 32.7134L41.6052 32.6468L41.9194 32.4071C42.0962 32.2739 42.2533 32.1074 42.273 32.0275C42.4301 31.2816 42.633 28.7176 42.5479 28.4911C42.4824 28.3246 42.2206 28.3646 41.3237 28.6776ZM42.4104 28.6243C42.345 28.8041 42.0438 30.4957 41.9587 31.175C41.8867 31.7611 41.8736 31.8077 41.6838 31.9209C41.5528 32.0075 41.363 32.0475 41.1208 32.0475H40.7476L40.8655 31.821C40.9833 31.5813 41.1077 30.7821 41.1797 29.7565L41.2255 29.1704L41.782 28.8508C42.4039 28.4911 42.4693 28.4711 42.4104 28.6243ZM40.8917 29.7232C40.8458 29.9496 40.7738 30.4691 40.7345 30.8753C40.6953 31.2816 40.6298 31.7145 40.584 31.8277L40.512 32.0475H39.9882C39.4907 32.0475 39.4776 32.0408 39.5758 31.9276C39.7067 31.7811 39.8835 30.6889 39.8835 30.0029V29.5301L40.2632 29.4834C40.4727 29.4635 40.6887 29.4102 40.7411 29.3769C40.9506 29.2437 40.9768 29.3103 40.8917 29.7232ZM39.6478 29.9496C39.602 30.1827 39.53 30.6955 39.4907 31.0818C39.4056 32.0275 39.3925 32.0475 38.8688 32.0475C38.4564 32.0475 38.3778 32.0075 38.5022 31.881C38.5807 31.8011 38.7051 30.6689 38.7051 30.0562V29.59L39.0848 29.5634C39.2878 29.55 39.5234 29.5367 39.5955 29.5301C39.7329 29.5167 39.7329 29.5234 39.6478 29.9496ZM38.5677 29.8297C38.5415 29.9696 38.4826 30.4558 38.4433 30.9153C38.3516 31.9675 38.3189 32.0475 38.0112 32.0475C37.6708 32.0475 37.35 31.8277 37.3107 31.5613C37.2256 31.0485 37.1209 29.8497 37.1536 29.7565C37.1864 29.6766 37.3369 29.6499 37.8345 29.63C38.188 29.6233 38.5087 29.6033 38.548 29.5967C38.6069 29.59 38.6069 29.6566 38.5677 29.8297Z" fill="url(#paint18_linear_65_47)"/>
<path id="Vector_20" d="M19.0329 28.591L14.9086 28.6243L13.7499 28.904C13.1083 29.0572 12.4078 29.1904 12.1787 29.1904C11.8252 29.1971 11.308 29.277 11.4062 29.3103C11.4259 29.3169 11.7335 29.3502 12.0936 29.3769C12.6631 29.4302 12.8857 29.4102 13.8284 29.2503L14.9086 29.0705L19.1965 29.1238C21.5532 29.1504 25.4877 29.1504 27.936 29.1171L32.3876 29.0639L33.5333 29.3502C34.5545 29.5967 34.7378 29.63 35.1502 29.59C35.4121 29.5634 35.6412 29.5301 35.6609 29.5034C35.6871 29.4834 35.471 29.4435 35.1895 29.4168C34.8426 29.3835 34.3188 29.2503 33.566 29.0039L32.4531 28.6376L29.7036 28.611C23.9689 28.5511 23.0458 28.5511 19.0329 28.591Z" fill="url(#paint19_linear_65_47)"/>
</g>
</g>
<g id="SvgjsG1109">
<path id="Vector_21" d="M53.8179 11.3563C53.8179 10.6272 54.0105 10.0439 54.3957 9.60637C54.781 9.16888 55.3589 8.95013 56.1294 8.95013H61.693L62.365 12.6414H58.0914C57.8585 12.6414 57.742 12.7691 57.742 13.0243V24.7818C57.742 25.037 57.8585 25.1646 58.0914 25.1646H59.8654V17.3445H63.6551V28.7739H56.8551C55.7262 28.7739 54.9377 28.5369 54.4898 28.0629C54.0419 27.589 53.8179 26.8052 53.8179 25.7114V11.3563ZM69.4607 12.4227C69.2277 12.4227 69.1113 12.5503 69.1113 12.8055V24.8911C69.1113 25.037 69.1337 25.1418 69.1785 25.2056C69.2233 25.2694 69.3263 25.3013 69.4876 25.3013H70.9658C71.1271 25.3013 71.2301 25.2694 71.2749 25.2056C71.3197 25.1418 71.3421 25.037 71.3421 24.8911V12.8055C71.3421 12.5503 71.2257 12.4227 70.9927 12.4227H69.4607ZM75.2932 25.9575C75.2932 26.3403 75.2484 26.7004 75.1588 27.0376C75.0692 27.3748 74.9169 27.671 74.7018 27.9262C74.4868 28.1814 74.2001 28.3865 73.8418 28.5414C73.4834 28.6964 73.0354 28.7738 72.4979 28.7738H67.9824C67.4449 28.7738 66.9969 28.6964 66.6385 28.5414C66.2802 28.3865 65.9935 28.1814 65.7785 27.9262C65.5634 27.671 65.4111 27.3748 65.3215 27.0376C65.2319 26.7004 65.1871 26.3403 65.1871 25.9575V11.5204C65.1871 10.7365 65.3977 10.1122 65.8188 9.64738C66.2399 9.18255 66.9073 8.95013 67.8212 8.95013H72.6591C73.573 8.95013 74.2405 9.18255 74.6615 9.64738C75.0826 10.1122 75.2932 10.7365 75.2932 11.5204V25.9575ZM76.9058 8.95013H80.9106V25.0826H84.8347L84.1628 28.7739H76.9058V8.95013ZM89.9146 12.4227V25.3013H91.7423C91.9036 25.3013 92.0066 25.2694 92.0514 25.2056C92.0962 25.1418 92.1186 25.037 92.1186 24.8912V12.8055C92.1186 12.5503 92.0021 12.4227 91.7692 12.4227L89.9146 12.4227ZM95.989 25.7114C95.989 26.8052 95.765 27.589 95.317 28.0629C94.8691 28.5369 94.0807 28.7739 92.9518 28.7739H86.0442V8.95013H93.6775C94.448 8.95013 95.0258 9.16888 95.4111 9.60637C95.7964 10.0439 95.989 10.6272 95.989 11.3563V25.7114ZM97.6017 8.95013H105.181L105.853 12.6414H101.606V17.3445H104.832V20.7623H101.606V25.0826H105.692L105.02 28.7739H97.6017V8.95013ZM107.197 8.95013H110.906L112.895 16.907V8.95013H116.9V28.7739H112.895L110.799 20.4889V28.7739H107.197V8.95013ZM122.84 28.7739L122.141 25.0826H126.334C126.639 25.0826 126.791 24.9458 126.791 24.6724V21.0631C126.791 20.7897 126.737 20.6256 126.63 20.5709C126.522 20.5163 126.334 20.4889 126.065 20.4889H124.049C123.763 20.4889 123.489 20.4661 123.23 20.4206C122.97 20.375 122.737 20.2702 122.531 20.1061C122.325 19.9421 122.163 19.7142 122.047 19.4225C121.93 19.1309 121.872 18.739 121.872 18.2468V11.5204C121.872 10.7365 122.083 10.1122 122.504 9.64738C122.925 9.18255 123.592 8.95013 124.506 8.95013H129.882L130.554 12.6414H126.146C125.823 12.6414 125.662 12.7873 125.662 13.0789V16.6882C125.662 16.8887 125.711 17.0254 125.81 17.0984C125.908 17.1713 126.056 17.2077 126.253 17.2077H128.699C129.326 17.2077 129.806 17.3581 130.137 17.6589C130.469 17.9597 130.634 18.4838 130.634 19.2311V25.7661C130.634 26.8598 130.415 27.6346 129.976 28.0903C129.537 28.546 128.762 28.7739 127.651 28.7739H122.84ZM135.795 26.313L135.445 28.7739H131.521L135.042 8.95013H139.208L142.729 28.7739H138.805L138.456 26.313H135.795ZM136.225 23.1685H138.026L137.139 16.1414L136.225 23.1685ZM143.804 8.95013H147.514L149.503 16.907V8.95013H153.507V28.7739H149.503L147.406 20.4889V28.7739H143.804V8.95013ZM158.99 12.4227V25.3013H160.818C160.979 25.3013 161.082 25.2694 161.127 25.2056C161.172 25.1418 161.194 25.037 161.194 24.8912V12.8055C161.194 12.5503 161.078 12.4227 160.845 12.4227L158.99 12.4227ZM165.065 25.7114C165.065 26.8052 164.841 27.589 164.393 28.0629C163.945 28.5369 163.156 28.7739 162.028 28.7739H155.12V8.95013H162.753C163.524 8.95013 164.102 9.16888 164.487 9.60637C164.872 10.0439 165.065 10.6272 165.065 11.3563V25.7114ZM167.645 28.7739L166.946 25.0826H171.139C171.444 25.0826 171.596 24.9458 171.596 24.6724V21.0631C171.596 20.7897 171.542 20.6256 171.435 20.5709C171.327 20.5163 171.139 20.4889 170.87 20.4889H168.855C168.568 20.4889 168.295 20.4661 168.035 20.4206C167.775 20.375 167.542 20.2702 167.336 20.1061C167.13 19.9421 166.969 19.7142 166.852 19.4225C166.736 19.1309 166.677 18.739 166.677 18.2468V11.5204C166.677 10.7365 166.888 10.1122 167.309 9.64738C167.73 9.18255 168.398 8.95013 169.311 8.95013H174.687L175.359 12.6414H170.951C170.628 12.6414 170.467 12.7873 170.467 13.0789V16.6882C170.467 16.8887 170.516 17.0254 170.615 17.0984C170.714 17.1713 170.861 17.2077 171.058 17.2077H173.504C174.131 17.2077 174.611 17.3581 174.942 17.6589C175.274 17.9597 175.439 18.4838 175.439 19.2311V25.7661C175.439 26.8598 175.22 27.6346 174.781 28.0903C174.342 28.546 173.567 28.7739 172.456 28.7739H167.645Z" fill="url(#paint20_linear_65_47)"/>
</g>
<g id="SvgjsG1110">
<path id="Vector_22" d="M66.1319 35.3129V33.585H67.8514V33.9535H66.6029V34.2389H67.7871V34.6074H66.6029V34.9444H67.8687V35.3129L66.1319 35.3129ZM71.3234 34.4263L72.1294 35.3129H71.5793L71.0477 34.7307L70.5186 35.3129H69.9698L70.7745 34.4263L70.0093 33.585H70.5594L71.0477 34.1258L71.5385 33.585H72.0886L71.3234 34.4263ZM76.2268 34.1748C76.2268 34.2612 76.2144 34.3406 76.1897 34.4131C76.1649 34.4856 76.1252 34.5481 76.0704 34.6005C76.0156 34.6529 75.9445 34.6938 75.8571 34.7231C75.7698 34.7525 75.6635 34.7671 75.5382 34.7671H74.7767V35.3129H74.3181V33.585H75.5382C75.6635 33.585 75.7698 33.5995 75.8571 33.6284C75.9445 33.6573 76.0156 33.698 76.0704 33.7504C76.1252 33.8028 76.165 33.865 76.1897 33.9371C76.2144 34.0092 76.2268 34.0885 76.2268 34.1748ZM75.7632 34.1824C75.7632 34.1421 75.7576 34.1075 75.7465 34.0786C75.7354 34.0497 75.717 34.026 75.6915 34.0076C75.666 33.9891 75.6326 33.9755 75.5914 33.9667C75.5502 33.9579 75.4995 33.9535 75.4393 33.9535H74.7767V34.3987H75.4393C75.4995 34.3987 75.5502 34.3951 75.5914 34.388C75.6326 34.3808 75.666 34.3687 75.6915 34.3515C75.717 34.3343 75.7354 34.3119 75.7465 34.2842C75.7576 34.2566 75.7632 34.2226 75.7632 34.1824ZM78.4946 35.3129V33.585H80.2141V33.9535H78.9656V34.2389H80.1498V34.6074H78.9656V34.9444H80.2314V35.3129L78.4946 35.3129ZM83.021 35.3129H82.5624V33.585H83.712C83.8356 33.585 83.9405 33.598 84.0266 33.624C84.1127 33.65 84.1828 33.6869 84.2368 33.7347C84.2908 33.7824 84.3299 33.8401 84.3542 33.9076C84.3785 33.9751 84.3907 34.0503 84.3907 34.1333C84.3907 34.2062 84.3806 34.27 84.3604 34.3245C84.3402 34.379 84.313 34.4257 84.2788 34.4647C84.2446 34.5037 84.2048 34.5366 84.1595 34.5634C84.1142 34.5902 84.0664 34.6125 84.0161 34.6301L84.5724 35.3129H84.0359L83.5216 34.6766H83.021L83.021 35.3129ZM83.9271 34.1308C83.9271 34.0973 83.9228 34.0688 83.9141 34.0453C83.9055 34.0218 83.8904 34.0027 83.869 33.9881C83.8476 33.9734 83.8189 33.9627 83.7831 33.956C83.7472 33.9493 83.7025 33.9459 83.649 33.9459H83.021V34.3157H83.649C83.7025 34.3157 83.7472 34.3123 83.7831 34.3056C83.8189 34.2989 83.8476 34.2882 83.869 34.2735C83.8904 34.2589 83.9055 34.2398 83.9141 34.2163C83.9228 34.1928 83.9271 34.1643 83.9271 34.1308ZM86.7896 35.3129V33.585H87.2482V35.3129H86.7896ZM89.6681 35.3129V33.585H91.3876V33.9535H90.1391V34.2389H91.3234V34.6074H90.1391V34.9444H91.4049V35.3129L89.6681 35.3129ZM95.3404 35.3129L94.1945 34.1258V35.3129H93.7358V33.585H94.234L95.3812 34.7772V33.585H95.8373V35.3129H95.3404ZM100.129 35.1947C100.07 35.2199 100.01 35.2425 99.9497 35.2626C99.8895 35.2827 99.8273 35.3001 99.763 35.3148C99.6987 35.3295 99.6309 35.3406 99.5597 35.3481C99.4884 35.3557 99.4119 35.3594 99.3303 35.3594C99.1573 35.3594 98.998 35.3406 98.8526 35.3028C98.7071 35.2651 98.5818 35.2083 98.4768 35.1325C98.3717 35.0566 98.2899 34.9618 98.2314 34.8482C98.1729 34.7347 98.1436 34.602 98.1436 34.4502C98.1436 34.2985 98.1729 34.1658 98.2314 34.0522C98.2899 33.9386 98.3717 33.8439 98.4768 33.768C98.5818 33.6921 98.7071 33.6353 98.8526 33.5976C98.998 33.5599 99.1573 33.541 99.3303 33.541C99.4119 33.541 99.4884 33.5448 99.5597 33.5523C99.631 33.5599 99.6987 33.571 99.763 33.5857C99.8273 33.6003 99.8895 33.6177 99.9497 33.6378C100.01 33.658 100.07 33.6806 100.129 33.7057V34.1258C100.082 34.0998 100.032 34.074 99.9806 34.0484C99.9286 34.0229 99.8714 33.9998 99.8087 33.9793C99.7461 33.9587 99.6773 33.942 99.6023 33.929C99.5273 33.916 99.4428 33.9095 99.3489 33.9095C99.2046 33.9095 99.0849 33.9246 98.9898 33.9547C98.8946 33.9849 98.8186 34.0252 98.7617 34.0755C98.7048 34.1258 98.6649 34.1834 98.6418 34.2484C98.6187 34.3134 98.6072 34.3807 98.6072 34.4502C98.6072 34.4964 98.6121 34.5418 98.622 34.5867C98.6319 34.6315 98.6484 34.6739 98.6714 34.7137C98.6945 34.7535 98.7246 34.7902 98.7617 34.8237C98.7988 34.8573 98.8449 34.8862 98.9001 34.9105C98.9554 34.9348 99.0198 34.9539 99.0936 34.9677C99.1674 34.9816 99.2525 34.9885 99.3489 34.9885C99.4428 34.9885 99.5273 34.9824 99.6023 34.9703C99.6773 34.9581 99.7461 34.942 99.8087 34.9218C99.8714 34.9017 99.9286 34.8789 99.9806 34.8533C100.032 34.8277 100.082 34.8015 100.129 34.7747V35.1947ZM102.445 35.3129V33.585H104.164V33.9535H102.916V34.2389H104.1V34.6074H102.916V34.9444H104.182V35.3129L102.445 35.3129ZM111.433 34.4477C111.433 34.5584 111.421 34.6567 111.398 34.7426C111.374 34.8285 111.34 34.9033 111.297 34.9671C111.254 35.0308 111.202 35.0849 111.141 35.1293C111.08 35.1737 111.013 35.2094 110.939 35.2362C110.865 35.263 110.785 35.2825 110.699 35.2947C110.613 35.3068 110.524 35.3129 110.431 35.3129H109.353V33.585H110.428C110.522 33.585 110.611 33.5911 110.697 33.6032C110.782 33.6154 110.863 33.6349 110.937 33.6617C111.012 33.6885 111.079 33.724 111.14 33.768C111.201 33.812 111.254 33.8661 111.297 33.9302C111.34 33.9943 111.374 34.0692 111.398 34.1547C111.421 34.2402 111.433 34.3379 111.433 34.4477ZM110.971 34.4477C110.971 34.3647 110.961 34.2926 110.94 34.2314C110.919 34.1702 110.885 34.1197 110.838 34.0799C110.792 34.04 110.731 34.0103 110.656 33.9906C110.581 33.9709 110.489 33.961 110.381 33.961H109.812V34.9369H110.381C110.489 34.9369 110.581 34.927 110.656 34.9073C110.731 34.8876 110.792 34.8574 110.838 34.8168C110.885 34.7761 110.919 34.7252 110.94 34.664C110.961 34.6028 110.971 34.5307 110.971 34.4477ZM115.745 34.7307C115.745 34.817 115.724 34.8983 115.682 34.9746C115.64 35.0509 115.577 35.1176 115.492 35.1746C115.408 35.2316 115.304 35.2766 115.178 35.3098C115.052 35.3429 114.905 35.3594 114.737 35.3594C114.569 35.3594 114.422 35.3429 114.295 35.3098C114.169 35.2766 114.063 35.2316 113.979 35.1746C113.895 35.1176 113.832 35.0509 113.79 34.9746C113.748 34.8983 113.727 34.817 113.727 34.7307V33.585H114.185V34.5634C114.185 34.6213 114.192 34.676 114.206 34.7275C114.221 34.7791 114.248 34.8241 114.288 34.8627C114.328 34.9013 114.384 34.9319 114.456 34.9545C114.528 34.9771 114.622 34.9885 114.737 34.9885C114.852 34.9885 114.945 34.9771 115.017 34.9545C115.088 34.9319 115.144 34.9013 115.184 34.8627C115.224 34.8241 115.251 34.7791 115.265 34.7275C115.279 34.676 115.286 34.6213 115.286 34.5634V33.585H115.745L115.745 34.7307ZM120.089 34.8363C120.089 34.9034 120.081 34.9616 120.063 35.0111C120.046 35.0606 120.022 35.1031 119.991 35.1387C119.96 35.1744 119.923 35.2033 119.88 35.2255C119.837 35.2477 119.789 35.2653 119.736 35.2783C119.684 35.2913 119.628 35.3003 119.569 35.3054C119.51 35.3104 119.448 35.3129 119.385 35.3129H118.152V33.585H119.362C119.411 33.585 119.46 33.5871 119.509 33.5913C119.558 33.5955 119.605 33.6032 119.649 33.6146C119.694 33.6259 119.735 33.6416 119.773 33.6617C119.812 33.6818 119.845 33.7082 119.874 33.7409C119.902 33.7736 119.924 33.813 119.94 33.8591C119.956 33.9053 119.964 33.9598 119.964 34.0226C119.964 34.135 119.937 34.2241 119.883 34.2899C119.828 34.3557 119.743 34.3995 119.626 34.4213C119.708 34.4272 119.779 34.4399 119.838 34.4596C119.897 34.4793 119.945 34.5062 119.982 34.5401C120.019 34.5741 120.046 34.6156 120.063 34.6646C120.081 34.7137 120.089 34.7709 120.089 34.8363ZM119.517 34.0968C119.517 34.075 119.514 34.0543 119.507 34.0346C119.501 34.0149 119.489 33.9975 119.471 33.9824C119.454 33.9673 119.431 33.9551 119.401 33.9459C119.371 33.9367 119.333 33.9321 119.287 33.9321H118.611V34.2565H119.287C119.333 34.2565 119.371 34.2524 119.401 34.244C119.431 34.2356 119.454 34.2243 119.471 34.21C119.489 34.1958 119.501 34.1788 119.507 34.1591C119.514 34.1394 119.517 34.1186 119.517 34.0968ZM119.623 34.7822C119.623 34.7428 119.617 34.7112 119.604 34.6873C119.59 34.6634 119.57 34.6449 119.542 34.6319C119.514 34.6189 119.478 34.6104 119.433 34.6062C119.388 34.602 119.335 34.5999 119.274 34.5999H118.611V34.9658H119.274C119.335 34.9658 119.388 34.9637 119.433 34.9595C119.478 34.9553 119.514 34.9465 119.542 34.9331C119.57 34.9197 119.59 34.9011 119.604 34.8772C119.617 34.8533 119.623 34.8216 119.623 34.7822ZM123.76 34.9859H122.813L122.654 35.3129H122.142L123.031 33.585H123.543L124.432 35.3129H123.92L123.76 34.9859ZM122.978 34.6489H123.598L123.289 34.0126L122.978 34.6489ZM126.598 35.3129V33.585H127.057V35.3129H126.598ZM132.317 35.3129V33.585H134.036V33.9535H132.788V34.2389H133.972V34.6074H132.788V34.9444H134.054V35.3129L132.317 35.3129ZM136.385 35.3129V33.585H136.843V34.9344H138.083V35.313L136.385 35.3129ZM140.339 35.3129V33.585H142.058V33.9535H140.81V34.2389H141.994V34.6074H140.81V34.9444H142.075V35.3129L140.339 35.3129ZM145.5 33.541C145.667 33.541 145.822 33.5554 145.965 33.5843C146.108 33.6133 146.239 33.6504 146.358 33.6956V34.1182C146.311 34.0914 146.258 34.0654 146.199 34.0402C146.141 34.0151 146.076 33.9929 146.007 33.9736C145.938 33.9543 145.864 33.9388 145.785 33.927C145.706 33.9153 145.622 33.9094 145.535 33.9094C145.426 33.9094 145.331 33.9174 145.251 33.9333C145.17 33.9493 145.101 33.9706 145.043 33.9975C144.985 34.0243 144.938 34.0555 144.901 34.0912C144.864 34.1268 144.834 34.1647 144.813 34.205C144.792 34.2452 144.777 34.2863 144.769 34.3282C144.76 34.3701 144.756 34.4108 144.756 34.4502C144.756 34.4846 144.76 34.5219 144.767 34.5621C144.774 34.6024 144.787 34.6426 144.806 34.6828C144.826 34.7231 144.853 34.7617 144.887 34.7985C144.922 34.8354 144.967 34.8681 145.023 34.8966C145.078 34.9251 145.145 34.948 145.223 34.9652C145.302 34.9824 145.395 34.991 145.503 34.991C145.557 34.991 145.605 34.9893 145.645 34.9859C145.685 34.9826 145.722 34.978 145.756 34.9721C145.789 34.9662 145.82 34.9591 145.85 34.9507C145.879 34.9423 145.909 34.9335 145.94 34.9243V34.7155H145.426V34.337H146.399V35.2198C146.338 35.2408 146.27 35.2599 146.194 35.277C146.119 35.2942 146.041 35.3089 145.961 35.3211C145.88 35.3332 145.8 35.3427 145.719 35.3494C145.638 35.3561 145.562 35.3594 145.49 35.3594C145.379 35.3594 145.272 35.3519 145.17 35.3368C145.068 35.3217 144.973 35.2984 144.884 35.267C144.796 35.2356 144.715 35.1955 144.642 35.1469C144.569 35.0983 144.507 35.0404 144.455 34.9733C144.404 34.9063 144.364 34.8293 144.335 34.7426C144.307 34.6558 144.293 34.5583 144.293 34.4502C144.293 34.3429 144.307 34.2456 144.337 34.1584C144.367 34.0713 144.408 33.9941 144.461 33.927C144.515 33.86 144.578 33.8021 144.653 33.7535C144.728 33.7049 144.81 33.6648 144.899 33.6334C144.988 33.6019 145.084 33.5787 145.186 33.5636C145.288 33.5485 145.392 33.541 145.5 33.541ZM150.145 34.9859H149.199L149.039 35.3129H148.527L149.416 33.585H149.928L150.817 35.3129H150.305L150.145 34.9859ZM149.363 34.6489H149.984L149.674 34.0126L149.363 34.6489ZM154.588 35.3129L153.442 34.1258V35.3129H152.983V33.585H153.481L154.629 34.7772V33.585H155.085V35.3129H154.588ZM159.376 35.1947C159.317 35.2199 159.257 35.2425 159.197 35.2626C159.137 35.2827 159.075 35.3001 159.01 35.3148C158.946 35.3295 158.878 35.3406 158.807 35.3481C158.736 35.3557 158.659 35.3594 158.578 35.3594C158.405 35.3594 158.245 35.3406 158.1 35.3028C157.954 35.2651 157.829 35.2083 157.724 35.1325C157.619 35.0566 157.537 34.9618 157.479 34.8482C157.42 34.7347 157.391 34.602 157.391 34.4502C157.391 34.2985 157.42 34.1658 157.479 34.0522C157.537 33.9386 157.619 33.8439 157.724 33.768C157.829 33.6921 157.954 33.6353 158.1 33.5976C158.245 33.5599 158.405 33.541 158.578 33.541C158.659 33.541 158.736 33.5448 158.807 33.5523C158.878 33.5599 158.946 33.571 159.01 33.5857C159.075 33.6003 159.137 33.6177 159.197 33.6378C159.257 33.658 159.317 33.6806 159.376 33.7057V34.1258C159.329 34.0998 159.28 34.074 159.228 34.0484C159.176 34.0229 159.119 33.9998 159.056 33.9793C158.993 33.9587 158.925 33.942 158.85 33.929C158.775 33.916 158.69 33.9095 158.596 33.9095C158.452 33.9095 158.332 33.9246 158.237 33.9547C158.142 33.9849 158.066 34.0252 158.009 34.0755C157.952 34.1258 157.912 34.1834 157.889 34.2484C157.866 34.3134 157.854 34.3807 157.854 34.4502C157.854 34.4964 157.859 34.5418 157.869 34.5867C157.879 34.6315 157.896 34.6739 157.919 34.7137C157.942 34.7535 157.972 34.7902 158.009 34.8237C158.046 34.8573 158.092 34.8862 158.147 34.9105C158.203 34.9348 158.267 34.9539 158.341 34.9677C158.415 34.9816 158.5 34.9885 158.596 34.9885C158.69 34.9885 158.775 34.9824 158.85 34.9703C158.925 34.9581 158.993 34.942 159.056 34.9218C159.119 34.9017 159.176 34.8789 159.228 34.8533C159.28 34.8277 159.329 34.8015 159.376 34.7747V35.1947ZM161.692 35.3129V33.585H163.412V33.9535H162.163V34.2389H163.348V34.6074H162.163V34.9444H163.429V35.3129L161.692 35.3129Z" fill="url(#paint21_linear_65_47)"/>
</g>
</g>
</g>
<defs>
<linearGradient id="paint0_linear_65_47" x1="4.61084" y1="27.5789" x2="42.5607" y2="27.5789" gradientUnits="userSpaceOnUse">
<stop stop-color="#8F5E25"/>
<stop offset="0.5" stop-color="#FBF4A1"/>
<stop offset="1" stop-color="#8F5E25"/>
</linearGradient>
<linearGradient id="paint1_linear_65_47" x1="10.7974" y1="12.1546" x2="36.3324" y2="12.1546" gradientUnits="userSpaceOnUse">
<stop stop-color="#8F5E25"/>
<stop offset="0.5" stop-color="#FBF4A1"/>
<stop offset="1" stop-color="#8F5E25"/>
</linearGradient>
<linearGradient id="paint2_linear_65_47" x1="9.84131" y1="16.8467" x2="13.0178" y2="16.8467" gradientUnits="userSpaceOnUse">
<stop stop-color="#8F5E25"/>
<stop offset="0.5" stop-color="#FBF4A1"/>
<stop offset="1" stop-color="#8F5E25"/>
</linearGradient>
<linearGradient id="paint3_linear_65_47" x1="34.0571" y1="17.0384" x2="37.2539" y2="17.0384" gradientUnits="userSpaceOnUse">
<stop stop-color="#8F5E25"/>
<stop offset="0.5" stop-color="#FBF4A1"/>
<stop offset="1" stop-color="#8F5E25"/>
</linearGradient>
<linearGradient id="paint4_linear_65_47" x1="5.79785" y1="21.5185" x2="13.5663" y2="21.5185" gradientUnits="userSpaceOnUse">
<stop stop-color="#8F5E25"/>
<stop offset="0.5" stop-color="#FBF4A1"/>
<stop offset="1" stop-color="#8F5E25"/>
</linearGradient>
<linearGradient id="paint5_linear_65_47" x1="33.6641" y1="21.5098" x2="41.4152" y2="21.5098" gradientUnits="userSpaceOnUse">
<stop stop-color="#8F5E25"/>
<stop offset="0.5" stop-color="#FBF4A1"/>
<stop offset="1" stop-color="#8F5E25"/>
</linearGradient>
<linearGradient id="paint6_linear_65_47" x1="13.5312" y1="23.1112" x2="23.4271" y2="23.1112" gradientUnits="userSpaceOnUse">
<stop stop-color="#8F5E25"/>
<stop offset="0.5" stop-color="#FBF4A1"/>
<stop offset="1" stop-color="#8F5E25"/>
</linearGradient>
<linearGradient id="paint7_linear_65_47" x1="23.6152" y1="23.1146" x2="33.5959" y2="23.1146" gradientUnits="userSpaceOnUse">
<stop stop-color="#8F5E25"/>
<stop offset="0.5" stop-color="#FBF4A1"/>
<stop offset="1" stop-color="#8F5E25"/>
</linearGradient>
<linearGradient id="paint8_linear_65_47" x1="21.4878" y1="22.5513" x2="25.6448" y2="22.5513" gradientUnits="userSpaceOnUse">
<stop stop-color="#8F5E25"/>
<stop offset="0.5" stop-color="#FBF4A1"/>
<stop offset="1" stop-color="#8F5E25"/>
</linearGradient>
<linearGradient id="paint9_linear_65_47" x1="13.8677" y1="19.6392" x2="21.3262" y2="19.6392" gradientUnits="userSpaceOnUse">
<stop stop-color="#8F5E25"/>
<stop offset="0.5" stop-color="#FBF4A1"/>
<stop offset="1" stop-color="#8F5E25"/>
</linearGradient>
<linearGradient id="paint10_linear_65_47" x1="25.7734" y1="19.6392" x2="33.2648" y2="19.6392" gradientUnits="userSpaceOnUse">
<stop stop-color="#8F5E25"/>
<stop offset="0.5" stop-color="#FBF4A1"/>
<stop offset="1" stop-color="#8F5E25"/>
</linearGradient>
<linearGradient id="paint11_linear_65_47" x1="14.5601" y1="21.316" x2="21.4438" y2="21.316" gradientUnits="userSpaceOnUse">
<stop stop-color="#8F5E25"/>
<stop offset="0.5" stop-color="#FBF4A1"/>
<stop offset="1" stop-color="#8F5E25"/>
</linearGradient>
<linearGradient id="paint12_linear_65_47" x1="25.6499" y1="21.3219" x2="32.5713" y2="21.3219" gradientUnits="userSpaceOnUse">
<stop stop-color="#8F5E25"/>
<stop offset="0.5" stop-color="#FBF4A1"/>
<stop offset="1" stop-color="#8F5E25"/>
</linearGradient>
<linearGradient id="paint13_linear_65_47" x1="5.97266" y1="27.247" x2="15.1234" y2="27.247" gradientUnits="userSpaceOnUse">
<stop stop-color="#8F5E25"/>
<stop offset="0.5" stop-color="#FBF4A1"/>
<stop offset="1" stop-color="#8F5E25"/>
</linearGradient>
<linearGradient id="paint14_linear_65_47" x1="32.1909" y1="27.2191" x2="41.3918" y2="27.2191" gradientUnits="userSpaceOnUse">
<stop stop-color="#8F5E25"/>
<stop offset="0.5" stop-color="#FBF4A1"/>
<stop offset="1" stop-color="#8F5E25"/>
</linearGradient>
<linearGradient id="paint15_linear_65_47" x1="5.98682" y1="28.8441" x2="23.1141" y2="28.8441" gradientUnits="userSpaceOnUse">
<stop stop-color="#8F5E25"/>
<stop offset="0.5" stop-color="#FBF4A1"/>
<stop offset="1" stop-color="#8F5E25"/>
</linearGradient>
<linearGradient id="paint16_linear_65_47" x1="23.8574" y1="28.8098" x2="41.0945" y2="28.8098" gradientUnits="userSpaceOnUse">
<stop stop-color="#8F5E25"/>
<stop offset="0.5" stop-color="#FBF4A1"/>
<stop offset="1" stop-color="#8F5E25"/>
</linearGradient>
<linearGradient id="paint17_linear_65_47" x1="4.56104" y1="32.78" x2="10.3383" y2="32.78" gradientUnits="userSpaceOnUse">
<stop stop-color="#8F5E25"/>
<stop offset="0.5" stop-color="#FBF4A1"/>
<stop offset="1" stop-color="#8F5E25"/>
</linearGradient>
<linearGradient id="paint18_linear_65_47" x1="36.7739" y1="32.78" x2="42.568" y2="32.78" gradientUnits="userSpaceOnUse">
<stop stop-color="#8F5E25"/>
<stop offset="0.5" stop-color="#FBF4A1"/>
<stop offset="1" stop-color="#8F5E25"/>
</linearGradient>
<linearGradient id="paint19_linear_65_47" x1="11.394" y1="29.6042" x2="35.663" y2="29.6042" gradientUnits="userSpaceOnUse">
<stop stop-color="#8F5E25"/>
<stop offset="0.5" stop-color="#FBF4A1"/>
<stop offset="1" stop-color="#8F5E25"/>
</linearGradient>
<linearGradient id="paint20_linear_65_47" x1="53.8179" y1="8.95013" x2="175.439" y2="8.95013" gradientUnits="userSpaceOnUse">
<stop stop-color="#8F5E25"/>
<stop offset="0.5" stop-color="#FBF4A1"/>
<stop offset="1" stop-color="#8F5E25"/>
</linearGradient>
<linearGradient id="paint21_linear_65_47" x1="66.1318" y1="33.541" x2="163.429" y2="33.541" gradientUnits="userSpaceOnUse">
<stop stop-color="#8F5E25"/>
<stop offset="0.5" stop-color="#FBF4A1"/>
<stop offset="1" stop-color="#8F5E25"/>
</linearGradient>
</defs>
</svg>
