<svg width="61" height="61" viewBox="0 0 61 61" fill="none" xmlns="http://www.w3.org/2000/svg">
<g id="icons8-telegram 1">
<path id="Vector" d="M30.4994 2.90039C45.743 2.90039 58.0994 15.2568 58.0994 30.5004C58.0994 45.744 45.743 58.1004 30.4994 58.1004C15.2558 58.1004 2.89941 45.744 2.89941 30.5004C2.89941 15.2568 15.2558 2.90039 30.4994 2.90039ZM40.0202 41.7504C40.5278 40.1928 42.9062 24.6696 43.2002 21.6108C43.289 20.6844 42.9962 20.0688 42.4226 19.794C41.729 19.4604 40.7018 19.6272 39.5102 20.0568C37.8758 20.646 16.9814 29.5176 15.7742 30.0312C14.6294 30.5172 13.547 31.0476 13.547 31.8156C13.547 32.3556 13.8674 32.6592 14.7506 32.9748C15.6698 33.3024 17.9846 34.0044 19.3514 34.3812C20.6678 34.7448 22.1666 34.4292 23.0066 33.9072C23.897 33.354 34.1726 26.478 34.9106 25.8756C35.6474 25.2732 36.2354 26.0448 35.633 26.6484C35.0306 27.2508 27.977 34.0968 27.047 35.0448C25.9178 36.1956 26.7194 37.3884 27.4766 37.866C28.3418 38.4108 34.5638 42.5844 35.501 43.254C36.4382 43.9236 37.3886 44.2272 38.2586 44.2272C39.1286 44.2272 39.587 43.0812 40.0202 41.7504Z" fill="white" fill-opacity="0.9"/>
</g>
</svg>
