<svg width="15" height="16" viewBox="0 0 15 16" fill="none" xmlns="http://www.w3.org/2000/svg">
<g id="users">
<path id="Vector" d="M10 13.625V12.375C10 11.712 9.73661 11.0761 9.26777 10.6072C8.79893 10.1384 8.16304 9.875 7.5 9.875H3.75C3.08696 9.875 2.45107 10.1384 1.98223 10.6072C1.51339 11.0761 1.25 11.712 1.25 12.375V13.625" stroke="white" stroke-width="1.25" stroke-linecap="round" stroke-linejoin="round"/>
<path id="Vector_2" d="M5.625 7.375C7.00571 7.375 8.125 6.25571 8.125 4.875C8.125 3.49429 7.00571 2.375 5.625 2.375C4.24429 2.375 3.125 3.49429 3.125 4.875C3.125 6.25571 4.24429 7.375 5.625 7.375Z" stroke="white" stroke-width="1.25" stroke-linecap="round" stroke-linejoin="round"/>
<path id="Vector_3" d="M13.75 13.625V12.375C13.7496 11.8211 13.5652 11.283 13.2259 10.8452C12.8865 10.4075 12.4113 10.0948 11.875 9.9563" stroke="white" stroke-width="1.25" stroke-linecap="round" stroke-linejoin="round"/>
<path id="Vector_4" d="M10 2.4563C10.5378 2.59399 11.0144 2.90674 11.3548 3.34524C11.6952 3.78375 11.8799 4.32307 11.8799 4.87817C11.8799 5.43328 11.6952 5.9726 11.3548 6.4111C11.0144 6.84961 10.5378 7.16236 10 7.30005" stroke="white" stroke-width="1.25" stroke-linecap="round" stroke-linejoin="round"/>
</g>
</svg>
