<svg width="61" height="61" viewBox="0 0 61 61" fill="none" xmlns="http://www.w3.org/2000/svg">
<g id="whatsapp-black_100119 1" clip-path="url(#clip0_112_998)">
<g id="Icons">
<g id="Black">
<path id="Whatsapp" fill-rule="evenodd" clip-rule="evenodd" d="M30.4913 0.5C13.9528 0.5 0.5 13.9566 0.5 30.4997C0.5 37.0605 2.6158 43.145 6.21251 48.0837L2.47449 59.2297L14.0056 55.5444C18.7482 58.6837 24.408 60.5 30.5087 60.5C47.0472 60.5 60.5 47.0429 60.5 30.5003C60.5 13.9571 47.0472 0.500496 30.5087 0.500496L30.4913 0.5ZM22.1161 15.7385C21.5344 14.3453 21.0935 14.2926 20.2122 14.2568C19.9122 14.2393 19.5778 14.2219 19.207 14.2219C18.0606 14.2219 16.8618 14.5569 16.1388 15.2976C15.2575 16.197 13.071 18.2955 13.071 22.599C13.071 26.9025 16.2095 31.0647 16.6324 31.647C17.0733 32.2284 22.751 41.1879 31.5666 44.8394C38.4604 47.6964 40.5061 47.4316 42.0751 47.0966C44.3671 46.6029 47.2413 44.9091 47.9643 42.8638C48.6873 40.8176 48.6873 39.0715 48.4753 38.7011C48.2638 38.3308 47.6816 38.1198 46.8004 37.6783C45.9191 37.2373 41.6342 35.1208 40.8231 34.8386C40.0294 34.539 39.2716 34.645 38.6725 35.4916C37.826 36.6733 36.9975 37.8729 36.3273 38.5956C35.7983 39.1601 34.9339 39.2307 34.2114 38.9306C33.2416 38.5254 30.5266 37.5722 27.1763 34.5917C24.5842 32.2817 22.8212 29.4072 22.3102 28.5431C21.7986 27.6616 22.2573 27.1494 22.6624 26.6736C23.1033 26.1265 23.5263 25.7388 23.9672 25.2271C24.4081 24.7159 24.6549 24.4511 24.937 23.8513C25.2371 23.2695 25.0251 22.6697 24.8136 22.2287C24.6021 21.7877 22.8391 17.4841 22.1161 15.7385Z" fill="white" fill-opacity="0.9"/>
</g>
</g>
</g>
<defs>
<clipPath id="clip0_112_998">
<rect width="60" height="60" fill="white" transform="translate(0.5 0.5)"/>
</clipPath>
</defs>
</svg>
